<svg width="264" height="264" viewBox="0 0 264 264" fill="none" xmlns="http://www.w3.org/2000/svg">
<path d="M132 164.917C113.829 164.917 99.0552 150.143 99.0552 131.973C99.0552 113.802 113.829 99.0278 132 99.0278C150.171 99.0278 164.945 113.802 164.945 131.973C164.917 150.143 150.143 164.917 132 164.917ZM132 112.863C121.451 112.863 112.863 121.451 112.863 132C112.863 142.549 121.451 151.137 132 151.137C142.549 151.137 151.137 142.549 151.137 132C151.137 121.451 142.549 112.863 132 112.863Z" fill="#4F8585"/>
<path d="M132.055 190.019C128.079 190.019 124.102 189.605 120.181 188.804C105.02 185.656 91.9857 176.764 83.4802 163.813C74.9748 150.861 72.0475 135.369 75.1956 120.181C77.9295 107.036 85.1923 95.1891 95.6032 86.7941C105.904 78.5096 118.8 73.9531 131.945 73.9531C135.921 73.9531 139.898 74.3673 143.819 75.1682C158.98 78.3163 172.014 87.2083 180.52 100.16C189.025 113.111 191.952 128.603 188.804 143.792C186.07 156.936 178.807 168.783 168.397 177.178C158.068 185.463 145.172 190.019 132.055 190.019ZM131.945 87.7607C111.151 87.7607 92.9522 102.562 88.6994 122.97C83.7287 146.829 99.1103 170.302 122.97 175.273C125.952 175.908 129.017 176.212 132.027 176.212C152.822 176.212 171.02 161.41 175.273 141.003C177.675 129.432 175.438 117.64 168.976 107.754C162.514 97.8677 152.573 91.1021 141.002 88.6995C138.02 88.092 134.955 87.7607 131.945 87.7607Z" fill="#4F8585"/>
<path d="M132.083 214.293C129.542 214.293 126.974 214.183 124.406 213.934C102.507 211.918 82.7347 201.48 68.6787 184.579C54.6226 167.679 48.0226 146.305 50.0385 124.434C51.9439 103.888 61.3883 84.9164 76.687 71.0813C91.8753 57.3013 111.482 49.7349 131.89 49.7349C134.43 49.7349 136.998 49.8453 139.566 50.0938C161.465 52.1097 181.238 62.5482 195.294 79.4486C209.35 96.3491 215.95 117.723 213.934 139.622C212.028 160.168 202.584 179.139 187.285 192.974C172.097 206.699 152.49 214.293 132.083 214.293ZM131.89 63.5148C96.3489 63.5148 67.0769 90.2462 63.7907 125.704C60.3112 163.316 88.0644 196.73 125.676 200.209C127.802 200.403 129.957 200.513 132.083 200.513C167.623 200.513 196.895 173.782 200.182 138.324C203.661 100.712 175.908 67.298 138.296 63.8185C136.17 63.5976 134.016 63.5148 131.89 63.5148Z" fill="#4F8585"/>
<path d="M132.055 239.036C130.813 239.036 129.542 239.008 128.272 238.981C113.829 238.484 99.9113 235.17 86.9046 229.122C74.3397 223.296 63.1832 215.177 53.6837 205.014C44.1841 194.852 36.8937 183.143 31.9506 170.219C26.8142 156.826 24.4945 142.715 24.9916 128.272C25.9581 100.353 37.5565 74.3122 57.6878 54.9264C77.7364 35.5959 104.109 24.9365 131.917 24.9365C133.16 24.9365 134.43 24.9641 135.7 24.9917C150.143 25.4888 164.061 28.8026 177.068 34.8503C189.633 40.6771 200.789 48.7959 210.289 58.9583C219.788 69.1206 227.079 80.8294 232.022 93.7532C237.158 107.147 239.478 121.258 238.981 135.7C238.014 163.619 226.416 189.66 206.284 209.046C186.236 228.404 159.864 239.036 132.055 239.036ZM131.917 38.7441C81.4368 38.7441 40.5389 78.2888 38.7991 128.769C37.0041 180.161 77.3774 223.406 128.741 225.201C129.846 225.229 130.951 225.256 132.028 225.256C182.508 225.256 223.406 185.711 225.146 135.231C226.941 83.8395 186.567 40.5942 135.203 38.7993C134.126 38.7717 133.022 38.7441 131.917 38.7441Z" fill="#4F8585"/>
<path d="M132 264C114.188 264 96.9012 260.52 80.6083 253.617C64.8954 246.961 50.7841 237.462 38.6611 225.339C26.5381 213.216 17.0109 199.105 10.3833 183.392C3.50714 167.099 0 149.812 0 132C0 114.188 3.47952 96.9012 10.3833 80.6083C17.0385 64.8954 26.5381 50.7841 38.6611 38.6611C50.7841 26.5381 64.8954 17.0109 80.6083 10.3833C96.9012 3.50714 114.188 0 132 0C149.812 0 167.099 3.47952 183.392 10.3833C199.105 17.0385 213.216 26.5381 225.339 38.6611C237.462 50.7841 246.989 64.8954 253.617 80.6083C260.493 96.9012 264 114.188 264 132C264 149.812 260.52 167.099 253.617 183.392C246.961 199.105 237.462 213.216 225.339 225.339C213.216 237.462 199.105 246.989 183.392 253.617C167.099 260.52 149.812 264 132 264ZM132 13.7799C66.8284 13.7799 13.8075 66.8008 13.8075 131.972C13.8075 197.144 66.8284 250.165 132 250.165C197.172 250.165 250.192 197.144 250.192 131.972C250.192 66.8284 197.172 13.7799 132 13.7799Z" fill="#4F8585"/>
</svg>
