<svg width="140" height="127" viewBox="0 0 140 127" fill="none" xmlns="http://www.w3.org/2000/svg">
<path fill-rule="evenodd" clip-rule="evenodd" d="M32.0655 46.7139C37.6495 59.1284 35.9439 72.0031 28.2564 75.4783C20.5687 78.9536 9.81011 71.7102 4.22662 59.2982C-1.35737 46.8862 0.348011 34.0103 8.03572 30.5355C15.7234 27.0617 26.4815 34.3054 32.0655 46.7139Z" fill="#9DD67D"/>
<path fill-rule="evenodd" clip-rule="evenodd" d="M108.057 46.7139C102.472 59.1284 104.178 72.0031 111.866 75.4783C119.554 78.9536 130.311 71.7102 135.896 59.2982C141.479 46.8862 139.774 34.0103 132.086 30.5355C124.399 27.0617 113.641 34.3054 108.057 46.7139Z" fill="#9DD67D"/>
<path fill-rule="evenodd" clip-rule="evenodd" d="M64.742 21.8326C67.6043 35.1402 63.2413 47.3711 54.9973 49.153C46.754 50.9325 37.7508 41.5872 34.8889 28.2808C32.0271 14.9733 36.39 2.742 44.6337 0.96179C52.8774 -0.819159 61.8802 8.52492 64.742 21.8326Z" fill="#9DD67D"/>
<path fill-rule="evenodd" clip-rule="evenodd" d="M75.1751 21.8439C72.3153 35.1513 76.6752 47.3834 84.9186 49.1628C93.1625 50.9448 102.165 41.5995 105.027 28.2923C107.889 14.9847 103.527 2.75331 95.2824 0.973102C87.0385 -0.807355 78.0358 8.53622 75.1751 21.8439Z" fill="#9DD67D"/>
<path fill-rule="evenodd" clip-rule="evenodd" d="M54.424 66.3176C52.412 69.8003 43.0885 81.3287 36.6397 85.2618C30.1915 89.1948 22.201 94.9541 23.5419 108.178C24.8821 121.405 38.4185 127.066 47.3297 126.564C56.2414 126.064 73.0428 124.42 85.0384 126.086C97.0333 127.753 112.173 126.49 115.718 113.827C119.263 101.164 111.334 93.0959 105.147 88.518C98.9597 83.9425 88.6272 70.2556 85.4439 63.9721C82.2611 57.691 66.0603 46.1872 54.424 66.3176Z" fill="#9DD67D"/>
</svg>
