<svg width="119" height="135" viewBox="0 0 119 135" fill="none" xmlns="http://www.w3.org/2000/svg">
<path d="M59.0678 67.0472C-40.8778 62.0144 4.73634 -16.9972 59.0678 67.0472V67.0472Z" fill="#63B760"/>
<path d="M59.0678 67.5522C-40.8778 72.585 4.73634 151.597 59.0678 67.5522V67.5522Z" fill="#63B760"/>
<path d="M59.4997 67.7985C13.8856 156.865 105.114 156.865 59.4997 67.7985V67.7985Z" fill="#63B760"/>
<path d="M59.4997 66.8002C13.8856 -22.2667 105.114 -22.2667 59.4997 66.8002V66.8002Z" fill="#63B760"/>
<path d="M59.9326 67.5522C114.264 151.597 159.878 72.585 59.9326 67.5522V67.5522Z" fill="#63B760"/>
<path d="M59.9326 67.0472C114.264 -16.9972 159.878 62.0144 59.9326 67.0472V67.0472Z" fill="#63B760"/>
<path d="M69.216 67.3046C65.9843 67.3046 62.8863 67.2325 59.912 67.0885C59.912 67.0782 59.9326 67.0679 59.9326 67.0473C59.9223 67.0473 59.9018 67.0473 59.8915 67.0473C61.2603 64.4023 62.7423 61.6852 64.3582 58.8857C62.7423 61.6852 61.1265 64.3302 59.521 66.8415C59.521 66.8312 59.5107 66.8106 59.5004 66.8003C59.5004 66.8106 59.4901 66.8312 59.4798 66.8415C57.8742 64.3302 56.2583 61.6852 54.6425 58.8857C56.2583 61.6852 57.7404 64.4023 59.1093 67.0473C59.099 67.0473 59.0784 67.0473 59.0681 67.0473C59.0681 67.0576 59.0887 67.0679 59.0887 67.0885C56.1143 67.2223 53.0164 67.3046 49.7847 67.3046C53.0164 67.3046 56.1143 67.3766 59.0887 67.5207C59.0887 67.531 59.0681 67.5413 59.0681 67.5619C59.0784 67.5619 59.099 67.5619 59.1093 67.5619C57.7404 70.207 56.2583 72.924 54.6425 75.7235C56.2583 72.924 57.8742 70.279 59.4798 67.7677C59.4798 67.778 59.4901 67.7986 59.5004 67.8089C59.5004 67.7986 59.5107 67.778 59.521 67.7677C61.1265 70.279 62.7423 72.924 64.3582 75.7235C62.7423 72.924 61.2603 70.207 59.8915 67.5619C59.9018 67.5619 59.9223 67.5619 59.9326 67.5619C59.9326 67.5516 59.912 67.5413 59.912 67.5207C62.8863 67.3869 65.9843 67.3046 69.216 67.3046Z" fill="#63B760"/>
</svg>
