<svg width="75" height="102" viewBox="0 0 75 102" fill="none" xmlns="http://www.w3.org/2000/svg">
<path d="M42.7403 8.64373C42.7158 10.5892 42.5922 12.5082 42.3513 14.4667C42.3803 14.226 42.4004 14.0184 42.4294 13.7777C41.9412 17.5865 40.996 21.3793 39.5144 24.9219C39.6096 24.6989 39.6959 24.5091 39.7911 24.2862C38.5952 27.16 37.0527 29.87 35.1573 32.3079C35.3098 32.1358 35.4294 31.9549 35.582 31.7829C34.6641 32.9566 33.6889 34.0795 32.599 35.1006C32.0662 35.6322 31.467 36.146 30.8768 36.6267C30.6072 36.8384 30.3376 37.0501 30.0679 37.2617C30.7841 36.7083 30.2027 37.1559 30.0259 37.286C29.8491 37.416 29.6722 37.5461 29.5042 37.6431C28.2753 38.5205 26.9407 39.2631 25.5906 39.9307C25.2636 40.0915 24.9034 40.2434 24.5764 40.4042C24.3754 40.4923 23.697 40.7719 24.5344 40.4284C24.3422 40.4834 24.1743 40.5804 23.9732 40.6685C23.2198 40.9635 22.4422 41.2165 21.6646 41.4696C20.2022 41.894 18.7663 42.2191 17.2578 42.4183C17.4831 42.3722 17.6995 42.3592 17.9248 42.3131C16.858 42.4531 15.7913 42.5932 14.7156 42.7664C13.9735 42.8869 13.2734 42.9832 12.6436 43.3469C11.2338 44.1048 10.9443 45.9793 11.8638 47.184C12.3356 47.8073 13.0949 48.1527 13.7371 48.5377C14.8316 49.2214 15.9083 49.9713 16.9342 50.7786C16.7621 50.626 16.5812 50.5065 16.4092 50.354C19.1912 52.5546 21.7852 55.0597 23.9504 57.8404C23.9989 57.9243 24.0563 57.9752 24.1048 58.0592C23.6572 57.4779 23.8357 57.7386 23.9504 57.8404C24.0805 58.0172 24.1863 58.152 24.3164 58.3288C24.5523 58.6405 24.7794 58.9853 24.9822 59.2881C25.3547 59.8848 25.7272 60.4814 26.0488 61.1355C26.2185 61.4294 26.3462 61.7475 26.507 62.0746C26.5708 62.2336 26.6347 62.3927 26.6985 62.5518C26.7624 62.7108 26.866 62.9871 26.5621 62.2668C26.6017 62.3839 26.65 62.4678 26.6896 62.5849C26.945 63.2212 27.1917 63.8907 27.3631 64.5754C27.8603 66.1638 28.1652 67.8072 28.4282 69.4748C28.3821 69.2494 28.3692 69.033 28.3231 68.8077C29.1812 75.1422 28.6323 81.5611 28.0682 87.905C27.8984 89.5985 27.7617 91.301 27.6249 93.0035C27.5734 93.593 27.9589 94.4062 28.3515 94.7953C28.7772 95.1933 29.2805 95.4346 29.8612 95.5192C31.1308 95.6819 32.2999 94.895 32.6702 93.6455C33.506 90.9237 34.3418 88.2018 35.1865 85.4468C35.9956 82.8243 36.7143 80.142 37.7884 77.5905C37.6932 77.8134 37.6069 78.0032 37.5117 78.2262C38.455 76.03 39.5639 73.8782 40.7545 71.8193C41.3453 70.8063 41.9692 69.8023 42.5932 68.7983C43.1308 67.9841 43.6442 67.1279 44.248 66.3314C44.0955 66.5034 43.9759 66.6844 43.8233 66.8564C44.5709 65.921 45.4332 65.0873 46.377 64.3464C46.5119 64.2406 46.6467 64.1347 46.7904 63.9958C47.102 63.7599 46.2179 64.4103 46.7063 64.0443C47.018 63.8084 47.3208 63.6055 47.6325 63.3696C48.2049 62.9551 48.8016 62.5827 49.3983 62.2102C50.6668 61.4498 51.9927 60.7403 53.3427 60.0728C53.6698 59.912 53.9879 59.7843 54.3149 59.6235C54.474 59.5596 54.6331 59.4958 54.8011 59.3988C54.8851 59.3503 54.9689 59.3018 55.0771 59.2953C54.9601 59.335 54.4741 59.5597 54.8431 59.3746C55.4794 59.1192 56.1488 58.8727 56.7851 58.6173C58.0731 58.1816 59.3852 57.7878 60.7436 57.6194C60.5183 57.6655 60.3019 57.6785 60.0766 57.7246C60.1848 57.7181 60.293 57.7116 60.4101 57.672C61.0682 57.5999 61.7199 57.4196 62.2019 56.9454C62.5999 56.5197 62.8412 56.0165 62.9258 55.4358C63.0885 54.1662 62.3104 52.964 61.0521 52.6268C60.4892 52.4759 59.9351 52.292 59.423 52.0838C59.6459 52.179 59.8358 52.2654 60.0587 52.3606C59.0103 51.9022 57.9973 51.3113 57.0861 50.6058C57.2582 50.7584 57.4392 50.8779 57.6113 51.0305C57.0531 50.597 56.5368 50.1392 56.0714 49.6241C55.8178 49.3787 55.6062 49.109 55.3526 48.8636C55.2467 48.7288 55.1077 48.585 55.0018 48.4502C54.9445 48.3993 54.896 48.3153 54.8386 48.2645C54.8144 48.2225 54.7902 48.1805 54.7571 48.1717C54.5785 47.9109 55.0172 48.5253 54.993 48.4833C54.1155 47.2544 53.322 45.9771 52.6214 44.6181C52.4695 44.258 52.2756 43.9221 52.1237 43.562C52.0598 43.4029 51.9717 43.2018 51.9079 43.0427C51.7317 42.6406 52.0841 43.4449 52.0202 43.2858C51.9806 43.1687 51.9321 43.0847 51.8925 42.9676C51.5644 42.2054 51.3113 41.4277 51.0251 40.6412C50.4706 39.002 50.0333 37.3232 49.6709 35.6289C49.2382 33.6674 48.8895 31.6574 48.607 29.6652C48.6531 29.8905 48.6661 30.1069 48.7122 30.3322C47.9043 24.4726 47.6552 18.5142 47.7219 12.5695C47.7369 11.1893 47.7761 9.85113 47.8241 8.47982C47.8632 7.14162 46.5706 5.87246 45.2389 5.94153C43.8386 6.13418 42.7729 7.19732 42.7403 8.64373C42.6282 11.8435 42.5824 15.061 42.678 18.2808C42.7728 22.0329 43.0334 25.8293 43.486 29.5707C43.9937 33.5044 44.6757 37.4492 45.8593 41.2445C46.8997 44.6466 48.3221 48.08 50.4276 50.9512C51.444 52.3237 52.5444 53.6479 53.8902 54.7183C55.3838 55.8993 56.9154 56.8066 58.7254 57.469C59.0808 57.5998 59.4449 57.6974 59.7761 57.7861C59.9791 56.1014 60.2152 54.4255 60.4181 52.7408C57.4188 53.0729 54.624 54.0986 51.8843 55.3166C49.1445 56.5345 46.4752 58.0197 44.0748 59.8255C42.879 60.7118 41.7494 61.6158 40.7411 62.7298C39.5713 64.049 38.631 65.5716 37.6995 67.0611C35.4515 70.6823 33.4175 74.4318 32.0192 78.4581C31.2325 80.7317 30.5695 83.074 29.8822 85.3742C29.1771 87.7407 28.4477 90.0652 27.7426 92.4316C29.4273 92.6346 31.1032 92.8707 32.7879 93.0737C33.3615 86.1645 34.2597 79.2359 33.844 72.3101C33.6119 68.8052 33.1149 65.2293 31.8734 61.9154C31.2615 60.2253 30.4907 58.599 29.5517 57.0698C28.4496 55.3548 27.1464 53.7279 25.7746 52.2246C24.2727 50.5445 22.6361 48.9702 20.8888 47.5437C19.9049 46.7122 18.8701 45.9381 17.7934 45.1882C16.9218 44.5997 16.0324 44.0775 15.1519 43.5221C15.324 43.6747 15.505 43.7942 15.6771 43.9467C15.8953 44.3246 16.0891 44.6605 16.3072 45.0384C16.3533 45.2637 16.3664 45.4801 16.4125 45.7055C16.3835 45.9461 16.3633 46.1537 16.3344 46.3943C16.2391 46.6173 16.1528 46.8071 16.0576 47.03C15.905 47.2021 15.7855 47.383 15.6329 47.5551C15.3543 47.7999 14.9919 48.0931 14.6584 48.1457C14.7335 48.1304 14.7755 48.1061 14.8506 48.0908C15.0428 48.0358 15.2261 48.0139 15.4183 47.9589C15.944 47.8514 16.4939 47.7858 17.0439 47.7202C16.8185 47.7663 16.6022 47.7793 16.3769 47.8254C17.8854 47.6262 19.427 47.436 20.9379 47.0955C22.6741 46.7089 24.3464 46.1632 25.9792 45.5005C29.4546 44.0537 32.6391 42.1032 35.4092 39.5802C40.737 34.7967 44.2738 28.2202 46.1436 21.3744C47.2438 17.2682 47.7899 12.9781 47.8612 8.7382C47.8673 7.39113 46.6499 6.10668 45.2762 6.2C43.8718 6.14311 42.7398 7.18845 42.7403 8.64373Z" fill="black"/>
</svg>
