<svg width="130" height="133" viewBox="0 0 130 133" fill="none" xmlns="http://www.w3.org/2000/svg">
<path d="M68.1432 0H61.8569V132.752H68.1432V0Z" fill="#19223F"/>
<path d="M130 63.1666H0V69.5859H130V63.1666Z" fill="#19223F"/>
<path d="M21.2487 17.1672L16.8037 21.7063L108.727 115.575L113.172 111.036L21.2487 17.1672Z" fill="#19223F"/>
<path d="M108.727 17.1659L16.8042 111.035L21.2492 115.574L113.172 21.705L108.727 17.1659Z" fill="#19223F"/>
<path d="M6.00804 38.3807L3.63623 44.3257L124.029 94.4128L126.401 88.4679L6.00804 38.3807Z" fill="#19223F"/>
<path d="M86.634 3.72206L37.585 126.663L43.4067 129.085L92.4557 6.14408L86.634 3.72206Z" fill="#19223F"/>
<path d="M124.172 38.604L3.5708 88.1735L5.91809 94.1287L126.519 44.5592L124.172 38.604Z" fill="#19223F"/>
<path d="M43.6096 3.64822L37.7778 6.04456L86.3068 129.198L92.1386 126.802L43.6096 3.64822Z" fill="#19223F"/>
</svg>
