<svg width="150" height="145" viewBox="0 0 150 145" fill="none" xmlns="http://www.w3.org/2000/svg">
<path d="M69.2978 1.67226C69.4891 4.64493 69.4465 7.63929 69.1703 10.5903C69.1278 10.9591 69.1065 11.328 69.0428 11.6752C69.0216 11.8488 69.0003 12.0224 68.9791 12.1959C68.9578 12.4563 69.0428 11.7837 68.9791 12.1742C68.9578 12.2827 68.9578 12.4129 68.9366 12.5214C68.8303 13.2592 68.7029 13.9969 68.5754 14.7346C68.2992 16.2101 67.9379 17.6856 67.513 19.1177C67.3005 19.7904 67.088 20.463 66.8542 21.1356C66.7267 21.4611 66.6204 21.7866 66.4717 22.1121C66.4505 22.1772 66.3655 22.2857 66.3655 22.3725C66.3655 22.1555 66.493 22.0904 66.408 22.2423C66.323 22.4159 66.2592 22.5894 66.1742 22.763C65.6643 23.913 65.0481 25.0196 64.3681 26.0612C64.2194 26.2999 64.0494 26.5385 63.8794 26.7772C63.7944 26.9074 63.6881 27.0376 63.6031 27.1678C63.5606 27.2112 63.5182 27.2763 63.4969 27.3197C63.7094 26.9291 63.5819 27.2112 63.5182 27.298C63.1357 27.797 62.7108 28.2961 62.2858 28.7735C61.8608 29.2291 61.4358 29.6631 60.9683 30.097C60.7559 30.2923 60.5222 30.4876 60.2885 30.6829C60.1822 30.7697 60.076 30.8565 59.9697 30.9433C59.7997 31.0735 60.2884 30.6829 60.0334 30.8999C59.9484 30.965 59.8847 31.0084 59.7997 31.0735C59.2472 31.4857 58.6735 31.8763 58.0785 32.2235C57.4836 32.5707 56.8674 32.831 56.2512 33.1565C56.2725 33.1348 56.6124 33.0046 56.3786 33.0914C56.2936 33.1348 56.2087 33.1565 56.1237 33.1999C55.9537 33.265 55.7837 33.3301 55.5925 33.3952C55.2738 33.5037 54.955 33.6122 54.615 33.699C53.9563 33.8942 53.2764 34.0244 52.5964 34.1112C52.2352 34.1546 51.8102 34.5452 51.6402 34.849C51.4703 35.1745 51.4065 35.5216 51.449 35.8905C51.5553 36.6716 52.214 37.3009 53.0214 37.3009C54.5725 37.2792 56.1237 37.2792 57.6748 37.3877C58.036 37.4094 58.376 37.4528 58.7372 37.4962C58.7585 37.4962 59.141 37.5613 58.886 37.5179C58.6098 37.4745 58.9922 37.5396 59.0347 37.5396C59.2259 37.5613 59.4172 37.6047 59.6085 37.6481C60.3734 37.8 61.1171 37.9952 61.8396 38.2339C61.967 38.2773 62.1158 38.3424 62.2433 38.3858C62.307 38.4075 62.392 38.4509 62.4557 38.4726C62.5832 38.516 62.7107 38.6462 62.3708 38.4292C62.6258 38.6028 62.9445 38.6896 63.2207 38.8415C63.7519 39.1236 64.2619 39.4273 64.7294 39.7745C64.8569 39.8613 64.9843 39.9481 65.1118 40.0566C65.1543 40.1 65.2181 40.1434 65.2606 40.1651C65.4731 40.317 65.1756 40.1 65.1544 40.0783C65.3668 40.2953 65.6431 40.4906 65.8768 40.6858C66.3443 41.1198 66.7904 41.5538 67.2154 42.0311C67.4066 42.2481 67.5979 42.4651 67.7679 42.6821C67.8529 42.7906 67.9379 42.8991 68.0442 43.0292C68.1717 43.2028 67.8104 42.7038 68.0016 42.9642C68.0654 43.051 68.1078 43.116 68.1716 43.2028C68.5328 43.7019 68.8516 44.2227 69.1703 44.7434C69.489 45.2859 69.7866 45.85 70.0628 46.4142C70.1903 46.6963 70.3177 46.9783 70.4452 47.2604C70.4665 47.3255 70.4877 47.3906 70.5302 47.434C70.3602 47.0217 70.4664 47.2604 70.5089 47.3689C70.5727 47.5425 70.6365 47.6944 70.7003 47.868C71.189 49.1699 71.5502 50.4935 71.8264 51.8388C71.9114 52.2293 71.9751 52.5982 72.0389 52.9888C72.0601 53.1407 72.0813 53.3142 72.1238 53.4661C72.1451 53.5963 72.1664 53.7048 72.1664 53.835C72.1664 53.7699 72.1451 53.7048 72.1451 53.6397C72.1451 53.7265 72.1664 53.7916 72.1664 53.8784C72.2514 54.6595 72.3364 55.419 72.3789 56.2001C72.6126 59.7804 72.4001 63.3823 72.1664 66.9408C72.1239 67.7436 72.8038 68.438 73.5475 68.5465C74.3337 68.6549 75.0561 68.1559 75.2899 67.3748C76.9685 61.9285 77.181 56.1784 78.4347 50.6453C78.7109 49.4085 79.0296 48.1717 79.4546 46.9566C79.5396 46.6963 79.6459 46.4359 79.7309 46.1972C79.7734 46.067 79.8583 45.9368 79.9008 45.7849C79.9008 45.8066 79.7521 46.1538 79.8583 45.9151C79.8795 45.85 79.9221 45.7632 79.9434 45.6981C80.1771 45.1774 80.4108 44.6783 80.6658 44.1793C81.1758 43.1811 81.7707 42.2264 82.4294 41.3368C82.4719 41.2934 82.5144 41.2283 82.5356 41.1849C82.3232 41.5104 82.3869 41.3802 82.4507 41.2934C82.5357 41.1849 82.6207 41.0764 82.7057 40.9679C82.8757 40.7509 83.0668 40.5339 83.2581 40.317C83.6193 39.9047 84.0018 39.5141 84.3843 39.167C84.618 38.95 84.8305 38.7547 85.0855 38.5594C85.128 38.516 85.1705 38.4943 85.2342 38.4509C84.8518 38.7547 85.128 38.5377 85.1917 38.4726C85.3192 38.3858 85.4255 38.299 85.553 38.2122C86.0204 37.8867 86.5091 37.583 87.0191 37.3226C87.1466 37.2575 87.2953 37.1924 87.4228 37.1273C87.4866 37.1056 87.5291 37.0839 87.5929 37.0622C87.8903 36.932 87.2741 37.1924 87.5503 37.0839C87.8266 36.9754 88.1028 36.8669 88.4003 36.7801C88.6977 36.6933 88.974 36.6065 89.2715 36.5414C89.399 36.5197 89.5477 36.4764 89.6752 36.4547C89.8027 36.433 90.3976 36.3462 89.8451 36.4113C90.2701 36.3462 90.6739 36.2811 90.9714 35.9339C91.2051 35.6735 91.3539 35.3697 91.4176 35.0009C91.5238 34.2631 91.0563 33.3735 90.2701 33.2216C89.6539 33.0914 89.0377 32.9395 88.4215 32.7442C88.1453 32.6574 87.8903 32.549 87.614 32.4622C87.4653 32.3971 87.3166 32.332 87.1679 32.2886C87.6566 32.4839 87.1041 32.2452 86.9766 32.2018C85.8504 31.6593 84.7668 31.0084 83.7681 30.2489C83.7256 30.2055 83.6618 30.1621 83.6193 30.1404C83.4069 29.9668 83.7043 30.2055 83.7256 30.2272C83.6193 30.1187 83.4706 30.0319 83.3431 29.9235C83.0882 29.7065 82.8543 29.5112 82.6206 29.2942C82.1531 28.8603 81.6857 28.4046 81.2607 27.9055C80.8358 27.4282 80.4321 26.9508 80.0284 26.4517C79.9859 26.3866 79.9433 26.3216 79.8796 26.2565C79.9008 26.2782 80.1134 26.5602 79.9434 26.3432C79.8371 26.213 79.7521 26.0829 79.6458 25.9527C79.4546 25.6923 79.2634 25.4102 79.0934 25.1498C78.3922 24.0866 77.776 22.9583 77.2235 21.8083C77.096 21.5262 76.9686 21.2658 76.8411 20.9838C76.7986 20.9187 76.7773 20.8319 76.7561 20.7668C76.6498 20.5281 76.7985 20.8536 76.7985 20.8753C76.7348 20.68 76.6498 20.5064 76.586 20.3328C76.3523 19.747 76.1398 19.1394 75.9273 18.5318C75.0349 15.8629 74.3762 13.1073 73.845 10.3299C73.5475 8.78931 73.2713 7.22703 73.0376 5.66475C72.9314 4.92701 72.8251 4.21097 72.7189 3.47323C72.6764 3.10436 72.6126 2.75718 72.5701 2.38831C72.5488 2.25812 72.4638 1.65056 72.5488 2.19302C72.5276 1.99774 72.5064 1.82415 72.4851 1.62887C72.4214 1.17321 72.3363 0.804323 72.0176 0.478849C71.7414 0.19677 71.2952 -0.0202021 70.8915 0.00149622C70.4877 0.0231945 70.0415 0.153374 69.7652 0.478849C69.489 0.826022 69.2341 1.25999 69.2978 1.67226C70.0415 7.37891 70.8915 13.1507 72.6126 18.6403C74.27 23.8696 76.9686 28.8603 81.197 32.3537C83.5981 34.3282 86.3604 35.8471 89.399 36.4329C89.5477 35.3697 89.6752 34.3065 89.824 33.2433C88.5065 33.4169 87.2953 33.7641 86.0629 34.3065C84.9792 34.7839 83.9805 35.4348 83.0456 36.1943C81.2182 37.6481 79.7096 39.5358 78.5197 41.5538C77.266 43.6585 76.3523 45.9802 75.7361 48.367C74.9924 51.1878 74.5674 54.0954 74.1425 56.9813C73.675 60.236 73.1863 63.4908 72.2088 66.637C73.25 66.7889 74.2912 66.9191 75.3324 67.071C75.7361 60.6483 76.0974 53.9218 73.9725 47.7378C72.2089 42.5736 68.7453 37.7348 63.7094 35.565C60.3309 34.1112 56.6337 34.0678 53.0214 34.1112C53.1701 35.1745 53.2976 36.2377 53.4464 37.3009C58.801 36.5414 63.3694 33.0046 66.493 28.665C69.9565 23.8479 71.4652 17.7941 72.1877 11.9356C72.6126 8.52893 72.6976 5.10058 72.4638 1.69395C72.4001 0.847715 71.7626 0.0231786 70.8702 0.0665753C70.0628 0.0882736 69.2341 0.760927 69.2978 1.67226Z" fill="#231F20"/>
<path d="M10.2903 45.7848C10.6515 47.4122 10.9702 49.0613 11.2465 50.7104C11.3952 51.5132 11.5228 52.316 11.629 53.1189C11.6928 53.5311 11.7565 53.9217 11.799 54.334C11.8202 54.5075 11.8414 54.7028 11.8627 54.8764C11.9052 55.1802 11.8627 54.8981 11.8627 54.8547C11.8839 54.9849 11.9052 55.1151 11.9052 55.267C12.3302 58.5434 12.5851 61.8199 12.7126 65.118C12.7764 66.5284 12.7764 67.9171 12.6914 69.3275C12.6702 69.653 12.6489 69.9785 12.6064 70.3039C12.5851 70.4775 12.5639 70.6511 12.5427 70.8247C12.5214 70.9983 12.5852 71.1285 12.5427 70.7813C12.5639 70.8898 12.5001 71.02 12.5001 71.1285C12.3939 71.8011 12.2664 72.4521 12.0751 73.103C11.9902 73.4285 11.8839 73.7323 11.7777 74.0577C11.7352 74.1879 11.6503 74.3398 11.629 74.47C11.714 74.1445 11.7139 74.2964 11.6714 74.3832C11.629 74.4917 11.5864 74.5785 11.5439 74.687C11.2465 75.3162 10.9065 75.9021 10.5028 76.4662C10.3965 76.5964 10.3116 76.7483 10.2053 76.8785C10.2266 76.8351 10.4178 76.5965 10.2479 76.8134C10.2054 76.8785 10.1628 76.9436 10.0991 76.987C9.88659 77.2691 9.65281 77.5512 9.41908 77.8332C8.97286 78.354 8.4842 78.8748 7.99549 79.3738C7.46427 79.9163 6.91175 80.4153 6.33804 80.9144C6.04056 81.1748 5.74312 81.4352 5.42439 81.6738C5.36064 81.7389 5.27565 81.804 5.21191 81.8474C5.16941 81.8691 4.91443 82.0861 5.10566 81.9342C5.31815 81.7823 5.02067 81.9993 4.99942 82.021C4.91443 82.0861 4.80822 82.1512 4.72323 82.238C3.44832 83.1927 2.13091 84.0824 0.792246 84.9286C0.218535 85.2975 -0.164022 86.0786 0.0697119 86.7729C0.282197 87.4239 0.898447 88.0098 1.59965 87.9664C2.93831 87.8796 4.27697 87.8145 5.63688 87.8796C6.52932 87.923 7.42176 88.0098 8.29295 88.1183C8.78166 88.1617 9.24909 88.205 9.73781 88.2484C9.88655 88.2484 10.0353 88.2701 10.184 88.2918C10.2265 88.2918 10.2478 88.2919 10.2903 88.3135C10.4603 88.3352 10.4178 88.3352 10.1628 88.2918C10.2053 88.3135 10.3116 88.3135 10.3541 88.3135C10.6941 88.3786 11.034 88.4437 11.374 88.5522C11.6715 88.639 11.969 88.7475 12.2452 88.856C12.3302 88.8777 12.394 88.9211 12.479 88.9428C12.6914 89.0296 12.0964 88.7692 12.4151 88.9211C12.5851 89.0079 12.7339 89.073 12.9039 89.1598C13.4989 89.4635 14.0513 89.8107 14.5825 90.2013C14.6463 90.2447 14.71 90.3098 14.7738 90.3532C15.0075 90.5268 14.71 90.3098 14.6888 90.2881C14.7525 90.3966 14.9862 90.5268 15.0712 90.6136C15.3474 90.8522 15.6025 91.0909 15.8575 91.3296C16.3462 91.807 16.8349 92.3277 17.2599 92.8485C17.4724 93.1089 17.6848 93.3693 17.8761 93.6296C17.6636 93.3259 18.1098 93.9334 17.8761 93.6296C17.9186 93.6947 17.9611 93.7381 18.0036 93.8032C18.1311 93.9768 18.2585 94.1504 18.3647 94.324C18.7685 94.9098 19.1509 95.4957 19.5121 96.1032C20.2983 97.4268 21.0208 98.8155 21.6795 100.204C22.0408 100.964 22.402 101.745 22.742 102.504C22.827 102.678 22.8907 102.851 22.9757 103.025C23.0182 103.112 23.0607 103.22 23.1032 103.307C23.2095 103.589 23.1032 103.329 23.082 103.264C23.2732 103.698 23.4219 104.132 23.5919 104.566C24.9731 108.124 26.0355 111.791 26.7792 115.545C26.9279 116.348 27.7992 116.803 28.5216 116.717C29.3716 116.608 29.8178 115.936 29.9028 115.111C30.6465 108.58 29.0315 102.092 29.414 95.5391C29.4352 95.0183 29.499 94.4976 29.5415 93.9985C29.5628 93.8683 29.584 93.7381 29.584 93.6079C29.6053 93.3909 29.5203 94.0636 29.5628 93.7381C29.5628 93.673 29.584 93.6296 29.584 93.5645C29.6265 93.2825 29.669 93.0004 29.7115 92.7183C29.9027 91.6117 30.1577 90.5051 30.4552 89.4418C30.6251 88.8777 30.7951 88.3135 30.9864 87.7494C31.0714 87.489 31.1564 87.2503 31.2627 87.0117C31.3052 86.8815 31.3688 86.7513 31.4113 86.6211C31.5176 86.3824 31.3689 86.7296 31.3476 86.7513C31.3901 86.6645 31.4114 86.5777 31.4539 86.4909C31.9001 85.4711 32.41 84.4729 33.0263 83.5399C33.175 83.3012 33.345 83.0625 33.515 82.8239C33.5363 82.7805 33.7274 82.5418 33.5362 82.7805C33.3662 83.0192 33.5575 82.7588 33.6 82.7154C33.685 82.6069 33.77 82.4984 33.8762 82.3899C34.2374 81.9559 34.6412 81.5437 35.0661 81.1748C35.1724 81.0663 35.2999 80.9795 35.4061 80.8927C35.5549 80.7625 35.1086 81.1097 35.2786 81.0012C35.3424 80.9578 35.4061 80.9144 35.4698 80.8493C35.7036 80.6974 35.9161 80.5456 36.1711 80.3937C36.4048 80.2635 36.6385 80.1333 36.8723 80.0248C36.9148 80.0031 37.1698 79.8946 36.8935 80.0031C36.6385 80.1116 36.8511 80.0248 36.9148 80.0031C37.0635 79.938 37.2122 79.8946 37.3609 79.8512C37.9984 79.6342 38.5721 79.005 38.5296 78.2889C38.4871 77.5512 38.0621 76.9653 37.3609 76.7266C34.6411 75.7936 31.7939 75.403 29.0528 74.5134C28.7341 74.4049 28.4154 74.2964 28.0966 74.1662C28.0329 74.1445 27.9691 74.1228 27.9053 74.1012C27.8628 74.0795 27.5866 73.9275 27.8204 74.0577C28.0541 74.1879 27.7779 74.036 27.7354 74.0144C27.6504 73.971 27.5442 73.9276 27.4592 73.8842C26.843 73.6021 26.2692 73.2549 25.7168 72.8643C25.6318 72.7992 25.5467 72.7342 25.4617 72.6908C25.2705 72.5606 25.5043 72.7558 25.5468 72.7558C25.4831 72.7775 25.2068 72.4738 25.143 72.4087C24.8668 72.1483 24.5906 71.8879 24.3356 71.6058C24.1231 71.3672 23.9106 71.1068 23.6982 70.8464C23.5919 70.7162 23.4857 70.586 23.3794 70.4558C23.6557 70.7813 23.4857 70.586 23.422 70.4992C23.3582 70.4124 23.2945 70.3039 23.2095 70.2171C22.4445 69.1539 21.807 68.0256 21.2333 66.8539C21.0846 66.5501 20.9571 66.2681 20.8296 65.9643C20.7659 65.8341 20.7021 65.7039 20.6597 65.552C20.6172 65.4869 20.5959 65.4001 20.5534 65.335C20.4259 65.0312 20.6809 65.6388 20.5534 65.3567C20.2984 64.7275 20.0646 64.0765 19.8309 63.4473C18.8747 60.7567 18.131 57.9793 17.3023 55.2453C16.1549 51.5566 14.8163 47.933 13.0739 44.5046C12.6914 43.7452 11.5865 43.4631 10.8853 43.9188C10.1204 44.4178 9.90784 45.3292 10.3116 46.1537C10.7365 46.9782 11.1403 47.8245 11.5228 48.6707C11.6928 49.0613 11.884 49.4519 12.0327 49.8424C12.0115 49.799 11.9052 49.517 12.0114 49.799C12.0539 49.8858 12.0965 49.9943 12.139 50.0811C12.224 50.2981 12.3089 50.5151 12.3939 50.7104C12.9888 52.2292 13.5201 53.7698 14.0088 55.3321C14.9012 58.1312 15.6662 60.9737 16.6012 63.751C17.4936 66.3982 18.5773 69.0237 20.1284 71.3454C20.9571 72.5823 21.892 73.8408 23.0394 74.7955C24.2718 75.8587 25.6318 76.6181 27.1405 77.204C30.1578 78.3974 33.43 78.7446 36.4898 79.7861C36.4898 78.7446 36.4898 77.7031 36.4898 76.6398C31.8576 78.1587 29.2015 82.8673 27.7354 87.2937C26.9704 89.572 26.503 91.9589 26.2693 94.3457C25.9718 97.4268 26.1842 100.551 26.4392 103.633C26.7367 107.43 27.0979 111.227 26.673 115.024C27.7141 114.872 28.7554 114.742 29.7965 114.59C29.1166 111.184 28.1603 107.82 26.9704 104.566C25.7592 101.289 24.3356 98.0561 22.6145 95.0183C21.1483 92.4579 19.3847 89.9626 17.1324 88.0748C15.9 87.055 14.625 86.2305 13.1376 85.6446C11.8202 85.1022 10.4391 84.9503 9.03665 84.8201C8.01672 84.7333 7.01807 84.6031 5.99814 84.538C4.4895 84.4512 3.00205 84.5163 1.49341 84.6031C1.76964 85.6229 2.02458 86.6211 2.30081 87.6409C4.80814 86.0569 7.25175 84.3211 9.44035 82.2597C11.6077 80.1984 13.6264 77.8333 14.7101 74.9908C15.7512 72.2568 15.9212 69.1973 15.8575 66.268C15.7937 62.9482 15.5387 59.6284 15.1562 56.3519C14.71 52.4896 14.0725 48.6273 13.2438 44.8301C13.0526 44.0056 12.0752 43.4414 11.289 43.7018C10.5453 44.0707 10.0778 44.8952 10.2903 45.7848Z" fill="#231F20"/>
<path d="M93.8821 89.4838C94.1796 90.6772 94.4134 91.8707 94.5834 93.1075C94.5621 92.9556 94.5408 92.8254 94.5195 92.6735C94.8383 95.082 94.8808 97.5556 94.5621 99.9641C94.5833 99.8122 94.6045 99.682 94.6258 99.5302C94.3708 101.483 93.8821 103.392 93.1384 105.193C93.2021 105.063 93.2447 104.933 93.3084 104.803C92.9472 105.671 92.5435 106.517 92.0548 107.32C91.8211 107.732 91.5448 108.144 91.2686 108.535C91.1411 108.709 91.0136 108.882 90.8861 109.056C91.2261 108.6 90.9499 108.969 90.8649 109.077C90.7799 109.186 90.6948 109.294 90.6098 109.381C90.0149 110.119 89.335 110.792 88.6338 111.421C88.4638 111.573 88.2725 111.725 88.1025 111.877C87.9963 111.963 87.6351 112.245 88.0813 111.898C87.975 111.963 87.8901 112.05 87.7838 112.137C87.3801 112.441 86.9551 112.723 86.5302 113.005C85.7227 113.504 84.9152 113.938 84.044 114.307C84.1715 114.242 84.299 114.198 84.4265 114.133C83.8103 114.394 83.1941 114.654 82.5779 114.936C82.1529 115.131 81.7492 115.305 81.4305 115.63C80.7081 116.325 80.8355 117.518 81.5792 118.104C81.9617 118.408 82.4717 118.494 82.9179 118.625C83.6829 118.863 84.4477 119.145 85.1914 119.471C85.064 119.406 84.9365 119.362 84.809 119.297C86.8276 120.187 88.7825 121.294 90.5249 122.639C90.5674 122.682 90.6099 122.704 90.6524 122.747C90.2911 122.465 90.4399 122.595 90.5249 122.639C90.6311 122.726 90.7161 122.791 90.8223 122.878C91.0136 123.029 91.2048 123.203 91.3748 123.355C91.6935 123.659 92.0122 123.962 92.3097 124.31C92.4585 124.462 92.5859 124.635 92.7347 124.809C92.7984 124.895 92.8622 124.982 92.9259 125.069C92.9897 125.156 93.096 125.308 92.7985 124.917C92.841 124.982 92.8834 125.026 92.9259 125.091C93.1809 125.438 93.436 125.807 93.6484 126.197C94.2009 127.087 94.6471 128.042 95.072 129.018C95.0083 128.888 94.9658 128.758 94.9021 128.628C96.432 132.36 97.1331 136.374 97.8131 140.345C97.9831 141.408 98.1743 142.471 98.3656 143.534C98.4293 143.903 98.7905 144.337 99.088 144.511C99.4067 144.684 99.7468 144.749 100.108 144.706C100.894 144.598 101.468 143.925 101.489 143.1C101.553 141.299 101.617 139.498 101.68 137.676C101.744 135.94 101.744 134.182 101.978 132.446C101.957 132.598 101.935 132.729 101.914 132.88C102.127 131.383 102.445 129.886 102.828 128.432C103.019 127.716 103.231 127 103.444 126.284C103.635 125.698 103.805 125.091 104.039 124.505C103.975 124.635 103.933 124.765 103.869 124.895C104.166 124.201 104.549 123.55 104.995 122.943C105.059 122.856 105.123 122.769 105.186 122.661C105.335 122.465 104.91 123.008 105.144 122.704C105.293 122.509 105.441 122.335 105.59 122.14C105.866 121.793 106.164 121.467 106.461 121.142C107.099 120.469 107.779 119.818 108.48 119.189C108.65 119.037 108.82 118.907 108.99 118.755C109.075 118.69 109.16 118.625 109.245 118.538C109.287 118.494 109.33 118.451 109.394 118.429C109.33 118.473 109.075 118.69 109.266 118.516C109.606 118.256 109.967 117.995 110.307 117.735C111.008 117.258 111.731 116.802 112.517 116.477C112.39 116.542 112.262 116.585 112.135 116.65C112.198 116.628 112.262 116.607 112.326 116.563C112.708 116.411 113.07 116.194 113.282 115.826C113.452 115.5 113.516 115.153 113.473 114.784C113.367 113.981 112.708 113.374 111.901 113.374C111.54 113.374 111.178 113.352 110.839 113.309C110.987 113.33 111.115 113.352 111.263 113.374C110.562 113.265 109.861 113.07 109.202 112.788C109.33 112.853 109.457 112.896 109.585 112.961C109.181 112.788 108.799 112.593 108.437 112.354C108.246 112.245 108.076 112.115 107.885 112.007C107.8 111.942 107.694 111.876 107.609 111.811C107.566 111.79 107.524 111.746 107.481 111.725C107.46 111.703 107.439 111.681 107.417 111.681C107.269 111.551 107.63 111.855 107.609 111.833C106.886 111.226 106.206 110.575 105.569 109.859C105.42 109.663 105.25 109.49 105.101 109.294C105.038 109.208 104.953 109.099 104.889 109.012C104.719 108.795 105.059 109.229 104.995 109.143C104.953 109.077 104.91 109.034 104.868 108.969C104.549 108.557 104.273 108.123 103.975 107.689C103.38 106.777 102.849 105.823 102.36 104.846C101.787 103.718 101.255 102.546 100.767 101.375C100.83 101.505 100.873 101.635 100.937 101.765C99.513 98.3151 98.408 94.7131 97.4943 91.0678C97.2819 90.2216 97.0907 89.3971 96.8994 88.5508C96.7082 87.7263 95.7307 87.1621 94.9445 87.4225C94.1371 87.7697 93.6696 88.5942 93.8821 89.4838C94.3283 91.4584 94.817 93.4329 95.3908 95.3858C96.0495 97.6641 96.8145 99.9424 97.6857 102.156C98.6206 104.477 99.6618 106.777 100.979 108.904C102.148 110.813 103.55 112.679 105.271 114.09C106.1 114.762 106.971 115.392 107.949 115.826C109.032 116.303 110.095 116.607 111.285 116.715C111.518 116.737 111.752 116.737 111.965 116.737C111.816 115.674 111.688 114.61 111.54 113.547C109.797 114.242 108.289 115.327 106.844 116.52C105.399 117.713 104.039 119.059 102.892 120.556C102.318 121.294 101.787 122.031 101.362 122.878C100.873 123.876 100.554 124.961 100.235 126.024C99.4705 128.606 98.8543 131.231 98.663 133.922C98.5568 135.441 98.5356 136.981 98.4931 138.5C98.4506 140.063 98.3868 141.603 98.3443 143.165C99.3855 143.014 100.427 142.883 101.468 142.731C100.703 138.414 100.129 134.03 98.7693 129.864C98.0681 127.76 97.1969 125.655 95.922 123.832C95.2845 122.899 94.5621 122.031 93.7547 121.25C92.8197 120.382 91.7785 119.601 90.7161 118.907C89.5474 118.126 88.315 117.431 87.0401 116.845C86.3177 116.498 85.574 116.194 84.809 115.912C84.1928 115.695 83.5766 115.522 82.9603 115.327C83.0878 115.392 83.2154 115.435 83.3429 115.5C83.5341 115.695 83.704 115.869 83.8953 116.064C83.959 116.194 84.0016 116.325 84.0653 116.455C84.0866 116.607 84.1078 116.737 84.129 116.889C84.1078 117.041 84.0866 117.171 84.0653 117.323C84.0016 117.453 83.959 117.583 83.8953 117.713C83.7678 117.909 83.5978 118.147 83.4066 118.234C83.4491 118.212 83.4703 118.191 83.5128 118.169C83.6191 118.104 83.7253 118.061 83.8316 117.995C84.129 117.844 84.4477 117.713 84.7665 117.583C84.639 117.648 84.5115 117.692 84.384 117.757C85.2552 117.388 86.1476 117.019 86.9976 116.563C87.975 116.043 88.8887 115.435 89.7599 114.762C91.6085 113.309 93.2022 111.594 94.4558 109.598C96.8782 105.801 97.9406 101.201 97.9619 96.7094C97.9619 94.0188 97.6006 91.3065 96.9631 88.7027C96.7506 87.8782 95.8158 87.2923 95.0083 87.5744C94.1584 87.7697 93.6484 88.5942 93.8821 89.4838Z" fill="#231F20"/>
<path d="M115.408 31.9197C115.578 32.7225 115.726 33.5254 115.854 34.3282C115.918 34.7188 115.981 35.131 116.045 35.5433C116.066 35.6735 116.172 36.2811 116.087 35.8037C116.13 36.0424 116.151 36.281 116.173 36.498C116.364 38.1471 116.513 39.8179 116.597 41.4886C116.767 44.8519 116.746 48.2368 116.512 51.5784C116.449 52.4029 116.385 53.2274 116.321 54.0737C116.279 54.4425 116.257 54.8331 116.215 55.202C116.194 55.3755 116.173 55.5491 116.151 55.7444C116.151 55.8312 116.13 55.918 116.13 55.9831C116.109 56.1133 116.13 56.0482 116.151 55.7878C116.151 55.8529 116.13 55.918 116.13 55.9831C115.939 57.3718 115.641 58.7388 115.28 60.0841C115.089 60.7567 114.876 61.4294 114.643 62.0803C114.515 62.4058 114.409 62.7313 114.281 63.0568C114.26 63.1436 114.218 63.2087 114.196 63.2954C114.324 62.8832 114.26 63.1218 114.218 63.2303C114.133 63.4039 114.069 63.5992 113.984 63.7728C113.41 65.053 112.751 66.2681 111.965 67.4398C111.753 67.7653 111.519 68.0908 111.285 68.3946C111.222 68.4813 111.094 68.5898 111.349 68.3078C111.285 68.3945 111.2 68.4814 111.137 68.5681C111.009 68.72 110.903 68.8719 110.775 69.0238C110.287 69.6097 109.777 70.1521 109.224 70.6946C108.948 70.9549 108.672 71.2153 108.374 71.4757C108.226 71.6059 108.056 71.7144 107.928 71.8446C108.204 71.5625 108.098 71.7144 107.992 71.8012C107.907 71.8663 107.822 71.9314 107.716 71.9965C107.099 72.4521 106.441 72.8861 105.761 73.255C105.166 73.5805 104.826 74.4267 105.038 75.0993C105.123 75.3597 105.251 75.6201 105.442 75.8154C105.676 76.0757 106.207 76.3361 106.568 76.2927C107.992 76.1192 109.415 76.0324 110.839 76.0758C111.54 76.0975 112.22 76.1409 112.921 76.2059C113.091 76.2276 113.283 76.2494 113.453 76.271C113.58 76.2928 114.218 76.3795 113.665 76.2927C114.026 76.3578 114.388 76.4012 114.749 76.4663C116.13 76.705 117.511 77.0522 118.85 77.4862C119.53 77.7031 120.21 77.9418 120.868 78.2239C121.017 78.289 121.145 78.3324 121.293 78.3975C121.378 78.4409 121.463 78.4626 121.548 78.506C121.102 78.3324 121.4 78.4409 121.506 78.4843C121.846 78.6362 122.165 78.788 122.505 78.9399C123.801 79.5692 125.054 80.2635 126.244 81.0447C126.839 81.4352 127.413 81.8258 127.965 82.2598C128.114 82.3683 128.263 82.4768 128.412 82.5853C128.475 82.6504 128.56 82.6937 128.624 82.7588C128.284 82.4984 128.433 82.607 128.518 82.6721C128.837 82.9324 129.134 83.1711 129.432 83.4315C130.494 84.3428 131.514 85.3409 132.449 86.3825C132.938 86.9249 133.405 87.4891 133.873 88.0749C133.958 88.2051 134.064 88.3136 134.149 88.4438C133.809 88.0315 134.212 88.5306 134.276 88.6391C134.489 88.9429 134.701 89.2466 134.914 89.5504C135.806 90.874 136.614 92.2627 137.294 93.6948C137.464 94.0637 137.634 94.4325 137.782 94.7797C137.91 95.0835 137.633 94.4108 137.761 94.7363C137.803 94.8448 137.846 94.975 137.888 95.0835C137.952 95.2571 138.016 95.4307 138.08 95.6042C138.377 96.3854 138.632 97.1882 138.845 97.9911C139.078 98.8156 139.992 99.4014 140.8 99.1194C141.182 98.9892 141.565 98.7505 141.756 98.3816C141.968 97.9693 141.989 97.5788 141.926 97.1231C141.926 97.1014 141.862 96.6891 141.904 96.9495C141.947 97.2099 141.883 96.8194 141.883 96.7977C141.862 96.6458 141.841 96.4939 141.819 96.342C141.777 95.9948 141.734 95.6476 141.713 95.3005C141.671 94.758 141.628 94.2155 141.607 93.6731C141.586 92.8269 141.607 91.9589 141.586 91.1127C141.586 90.0495 141.522 89.0079 141.416 87.9447C141.331 87.1419 141.225 86.3391 141.118 85.5362C141.055 85.0589 140.991 84.5815 140.927 84.0824C140.906 83.9957 140.906 83.9088 140.885 83.8221C140.821 83.4098 140.927 84.0824 140.885 83.8221C140.863 83.5834 140.821 83.3664 140.8 83.1277C140.608 81.5871 140.438 80.0249 140.396 78.4626C140.375 77.6597 140.375 76.8786 140.438 76.0758C140.46 75.7069 140.481 75.3163 140.545 74.9474C140.46 75.4031 140.587 74.7305 140.587 74.6437C140.63 74.4267 140.651 74.2314 140.693 74.0144C140.821 73.3418 141.012 72.6908 141.225 72.0616C141.31 71.7795 141.416 71.4974 141.522 71.2153C141.565 71.0851 141.607 70.955 141.671 70.8465C141.692 70.7597 141.735 70.6946 141.756 70.6078C141.905 70.2606 141.692 70.7814 141.756 70.6295C142.266 69.4795 142.839 68.3728 143.519 67.3313C143.711 67.0493 143.987 66.7455 144.157 66.4417C144.136 66.4634 143.923 66.7455 144.093 66.5285C144.157 66.4417 144.221 66.3766 144.284 66.2898C144.391 66.1596 144.497 66.0294 144.603 65.8992C145.049 65.3785 145.517 64.8794 146.027 64.4021C146.282 64.1634 146.558 63.9247 146.834 63.686C147.047 63.5124 146.77 63.7511 146.749 63.7511C146.834 63.7077 146.898 63.6209 146.983 63.5775C147.132 63.469 147.28 63.3605 147.408 63.2521C147.982 62.8398 148.577 62.4926 149.214 62.1671C149.809 61.8634 150.149 60.9737 149.936 60.3228C149.703 59.6067 149.129 59.1728 148.407 59.1294C147.663 59.086 146.919 59.0209 146.175 58.9341C146.005 58.9124 145.835 58.8907 145.665 58.869C145.58 58.869 145.495 58.8256 145.41 58.8256C145.835 58.8039 145.559 58.8473 145.432 58.8256C145.049 58.7605 144.667 58.7171 144.306 58.652C142.861 58.3916 141.437 58.0662 140.056 57.6539C139.355 57.4369 138.675 57.2199 137.995 56.9595C137.676 56.8294 137.357 56.7208 137.017 56.5907C136.975 56.569 136.529 56.3954 136.529 56.3954C136.592 56.4171 136.656 56.4605 136.72 56.4822C136.656 56.4605 136.592 56.4171 136.529 56.3954C136.444 56.352 136.337 56.3086 136.252 56.2652C134.914 55.6576 133.639 54.9633 132.406 54.1605C131.79 53.7482 131.174 53.3359 130.6 52.8803C130.537 52.8369 130.494 52.7935 130.43 52.7501C130.494 52.8152 130.791 53.0104 130.43 52.7501C130.303 52.6416 130.154 52.5331 130.027 52.4246C129.729 52.1859 129.453 51.9255 129.177 51.6652C128.645 51.1661 128.114 50.6453 127.625 50.1029C127.116 49.5387 126.669 48.9311 126.181 48.367C126.478 48.7142 126.117 48.2802 126.053 48.1717C125.947 48.0198 125.841 47.8897 125.734 47.7378C125.501 47.4123 125.288 47.0868 125.076 46.7613C124.651 46.1104 124.268 45.4377 123.886 44.7651C123.142 43.4198 122.483 42.0311 121.867 40.599C121.846 40.5339 121.803 40.4688 121.782 40.4037C121.761 40.3386 121.718 40.2735 121.697 40.2084C121.782 40.4254 121.803 40.4471 121.74 40.2952C121.655 40.0999 121.57 39.8829 121.485 39.6877C121.336 39.2971 121.187 38.9065 121.038 38.516C120.741 37.7131 120.443 36.8886 120.167 36.0857C119.594 34.415 119.062 32.7442 118.531 31.0734C118.276 30.2706 117.405 29.6631 116.576 29.9451C115.726 30.1838 115.131 31.0517 115.408 31.9197C117.32 38.0169 119.317 44.3094 123.036 49.5387C124.927 52.2076 127.201 54.5076 129.878 56.3954C132.406 58.1746 135.232 59.5199 138.144 60.4964C141.458 61.603 144.922 62.2105 148.407 62.4058C148.13 61.386 147.875 60.3879 147.599 59.3681C142.776 61.82 139.418 66.7021 137.952 71.9314C137.06 75.121 137.102 78.4409 137.464 81.6956C137.57 82.607 137.676 83.4966 137.804 84.4079C137.825 84.6249 137.867 84.8202 137.888 85.0372C137.91 85.1239 137.91 85.2108 137.931 85.2975C137.995 85.7098 137.889 85.0372 137.931 85.3192C137.995 85.7315 138.037 86.1655 138.101 86.5777C138.25 87.8579 138.398 89.1381 138.42 90.4183C138.441 91.3948 138.42 92.3712 138.441 93.3476C138.483 94.8882 138.653 96.4288 138.866 97.9694C139.886 97.6873 140.906 97.3835 141.947 97.1014C140.311 91.1995 136.911 85.8617 132.449 81.8041C127.987 77.7248 122.462 74.7522 116.597 73.5154C113.325 72.821 109.925 72.604 106.611 73.038C106.887 74.0578 107.142 75.0559 107.418 76.0758C112.645 73.1465 116.172 67.8738 118.021 62.1888C118.977 59.2379 119.402 56.1784 119.636 53.0755C119.912 49.6472 119.997 46.2189 119.87 42.7905C119.721 38.8631 119.317 34.9357 118.531 31.0951C118.361 30.2706 117.362 29.7065 116.576 29.9668C115.663 30.2055 115.238 31.0301 115.408 31.9197Z" fill="#231F20"/>
</svg>
