<svg width="390" height="33" viewBox="0 0 390 33" fill="none" xmlns="http://www.w3.org/2000/svg">
<g clip-path="url(#clip0_1211_7079)">
<path d="M390 19.8809L373.75 21.3191C357.5 22.8658 325 25.5795 292.5 25.6609C260 25.5795 227.5 22.8658 195 16.9773C162.5 11.1973 130 2.51367 97.5 3.95189C65 5.49866 32.5 16.8959 16.25 22.7844L-1.43051e-05 28.5645V-14.8535L16.25 -14.8535C32.5 -14.8535 65 -14.8535 97.5 -14.8535C130 -14.8535 162.5 -14.8535 195 -14.8535C227.5 -14.8535 260 -14.8535 292.5 -14.8535C325 -14.8535 357.5 -14.8535 373.75 -14.8535H390V19.8809Z" fill="#63B760"/>
</g>
<defs>
<clipPath id="clip0_1211_7079">
<rect width="390" height="32.7539" fill="white" transform="matrix(-1 0 0 -1 390 32.7539)"/>
</clipPath>
</defs>
</svg>
