<svg width="86" height="1024" viewBox="0 0 86 1024" fill="none" xmlns="http://www.w3.org/2000/svg">
<g clip-path="url(#clip0_1201_6754)">
<path d="M52.2 0L55.9763 42.6667C60.0375 85.3333 67.1625 170.667 67.3763 256C67.1625 341.333 60.0375 426.667 44.5763 512C29.4 597.333 6.6 682.667 10.3763 768C14.4375 853.333 44.3625 938.667 59.8237 981.333L75 1024H-39V981.333C-39 938.667 -39 853.333 -39 768C-39 682.667 -39 597.333 -39 512C-39 426.667 -39 341.333 -39 256C-39 170.667 -39 85.3333 -39 42.6667V0L52.2 0Z" fill="#63B760"/>
</g>
<defs>
<clipPath id="clip0_1201_6754">
<rect width="1024" height="86" fill="white" transform="matrix(0 1 -1 0 86 0)"/>
</clipPath>
</defs>
</svg>
