<svg width="109" height="95" viewBox="0 0 109 95" fill="none" xmlns="http://www.w3.org/2000/svg">
<g opacity="0.8">
<path fill-rule="evenodd" clip-rule="evenodd" d="M26.0464 34.7969C30.2182 44.0719 28.9439 53.6906 23.2005 56.287C17.457 58.8834 9.4192 53.4718 5.24774 44.1987C1.07591 34.9256 2.35 25.3059 8.09354 22.7099C13.8371 20.1146 21.8745 25.5264 26.0464 34.7969Z" fill="#B8F397"/>
<path fill-rule="evenodd" clip-rule="evenodd" d="M82.8201 34.7969C78.648 44.0719 79.9223 53.6906 85.6662 56.287C91.4098 58.8834 99.4468 53.4718 103.619 44.1987C107.791 34.9256 106.516 25.3059 100.773 22.7099C95.0297 20.1146 86.9919 25.5264 82.8201 34.7969Z" fill="#B8F397"/>
<path fill-rule="evenodd" clip-rule="evenodd" d="M50.4596 16.2079C52.598 26.1501 49.3383 35.2879 43.1792 36.6192C37.0206 37.9486 30.2942 30.9667 28.1561 21.0254C26.018 11.0833 29.2775 1.94522 35.4365 0.615213C41.5954 -0.715345 48.3215 6.26568 50.4596 16.2079Z" fill="#B8F397"/>
<path fill-rule="evenodd" clip-rule="evenodd" d="M58.2532 16.2164C56.1166 26.1584 59.374 35.2971 65.5327 36.6265C71.6917 37.9578 78.4178 30.9759 80.5557 21.034C82.694 11.0918 79.4348 1.95367 73.2755 0.623667C67.1164 -0.706524 60.3905 6.27412 58.2532 16.2164Z" fill="#B8F397"/>
<path fill-rule="evenodd" clip-rule="evenodd" d="M42.7498 49.443C41.2467 52.0449 34.281 60.6579 29.4631 63.5963C24.6456 66.5347 18.6758 70.8375 19.6776 80.7174C20.6789 90.5991 30.792 94.8284 37.4496 94.4532C44.1076 94.08 56.6601 92.8516 65.622 94.0965C74.5835 95.3414 85.8943 94.3981 88.543 84.9374C91.1918 75.4768 85.2679 69.4492 80.6452 66.029C76.0227 62.6107 68.3033 52.3851 65.925 47.6906C63.5471 42.998 51.4434 34.4034 42.7498 49.443Z" fill="#B8F397"/>
</g>
</svg>
