<svg width="75" height="102" viewBox="0 0 75 102" fill="none" xmlns="http://www.w3.org/2000/svg">
<path d="M42.7412 8.64373C42.7168 10.5892 42.5932 12.5082 42.3523 14.4667C42.3813 14.226 42.4013 14.0184 42.4303 13.7777C41.9422 17.5865 40.9969 21.3793 39.5153 24.9219C39.6106 24.6989 39.6968 24.5091 39.7921 24.2862C38.5961 27.16 37.0537 29.87 35.1582 32.3079C35.3108 32.1358 35.4304 31.9549 35.583 31.7829C34.6651 32.9566 33.6899 34.0795 32.6 35.1006C32.0671 35.6322 31.468 36.146 30.8778 36.6267C30.6081 36.8384 30.3385 37.0501 30.0689 37.2617C30.785 36.7083 30.2037 37.1559 30.0269 37.286C29.85 37.416 29.6731 37.5461 29.5052 37.6431C28.2763 38.5205 26.9417 39.2631 25.5916 39.9307C25.2646 40.0915 24.9044 40.2434 24.5774 40.4042C24.3763 40.4923 23.698 40.7719 24.5354 40.4284C24.3432 40.4834 24.1753 40.5804 23.9742 40.6685C23.2208 40.9635 22.4432 41.2165 21.6656 41.4696C20.2032 41.894 18.7673 42.2191 17.2588 42.4183C17.4841 42.3722 17.7004 42.3592 17.9258 42.3131C16.859 42.4531 15.7923 42.5932 14.7166 42.7664C13.9745 42.8869 13.2744 42.9832 12.6446 43.3469C11.2347 44.1048 10.9453 45.9793 11.8647 47.184C12.3366 47.8073 13.0959 48.1527 13.7381 48.5377C14.8326 49.2214 15.9093 49.9713 16.9352 50.7786C16.7631 50.626 16.5822 50.5065 16.4102 50.354C19.1922 52.5546 21.7862 55.0597 23.9514 57.8404C23.9999 57.9243 24.0573 57.9752 24.1058 58.0592C23.6582 57.4779 23.8367 57.7386 23.9514 57.8404C24.0815 58.0172 24.1873 58.152 24.3174 58.3288C24.5533 58.6405 24.7804 58.9853 24.9832 59.2881C25.3557 59.8848 25.7281 60.4814 26.0498 61.1355C26.2195 61.4294 26.3472 61.7475 26.508 62.0746C26.5718 62.2336 26.6356 62.3927 26.6995 62.5518C26.7633 62.7108 26.8669 62.9871 26.563 62.2668C26.6027 62.3839 26.651 62.4678 26.6906 62.5849C26.946 63.2212 27.1927 63.8907 27.3641 64.5754C27.8613 66.1638 28.1662 67.8072 28.4292 69.4748C28.3831 69.2494 28.3702 69.033 28.3241 68.8077C29.1821 75.1422 28.6333 81.5611 28.0692 87.905C27.8994 89.5985 27.7626 91.301 27.6259 93.0035C27.5744 93.593 27.9598 94.4062 28.3525 94.7953C28.7782 95.1933 29.2815 95.4346 29.8622 95.5192C31.1318 95.6819 32.3009 94.895 32.6712 93.6455C33.507 90.9237 34.3428 88.2018 35.1874 85.4468C35.9966 82.8243 36.7153 80.142 37.7894 77.5905C37.6942 77.8134 37.6079 78.0032 37.5127 78.2262C38.456 76.03 39.5649 73.8782 40.7554 71.8193C41.3463 70.8064 41.9702 69.8023 42.5941 68.7983C43.1317 67.9841 43.6452 67.1279 44.249 66.3314C44.0964 66.5034 43.9769 66.6844 43.8243 66.8564C44.5718 65.921 45.4342 65.0873 46.378 64.3464C46.5128 64.2406 46.6476 64.1347 46.7914 63.9958C47.103 63.7599 46.2188 64.4103 46.7073 64.0443C47.019 63.8084 47.3218 63.6055 47.6334 63.3696C48.2059 62.9551 48.8026 62.5827 49.3993 62.2102C50.6678 61.4498 51.9936 60.7403 53.3437 60.0728C53.6708 59.912 53.9889 59.7843 54.3159 59.6235C54.475 59.5596 54.6341 59.4958 54.8021 59.3988C54.886 59.3503 54.9699 59.3018 55.0781 59.2953C54.961 59.335 54.4751 59.5597 54.8441 59.3746C55.4804 59.1192 56.1498 58.8727 56.7861 58.6173C58.074 58.1816 59.3862 57.7878 60.7445 57.6194C60.5192 57.6655 60.3029 57.6785 60.0776 57.7246C60.1858 57.7181 60.294 57.7116 60.4111 57.672C61.0692 57.5999 61.7209 57.4196 62.2029 56.9454C62.6009 56.5197 62.8422 56.0165 62.9268 55.4358C63.0895 54.1662 62.3114 52.964 61.0531 52.6268C60.4901 52.4759 59.9361 52.292 59.424 52.0838C59.6469 52.179 59.8367 52.2654 60.0597 52.3606C59.0113 51.9022 57.9983 51.3113 57.0871 50.6058C57.2592 50.7584 57.4402 50.8779 57.6123 51.0305C57.0541 50.597 56.5377 50.1392 56.0724 49.6241C55.8187 49.3787 55.6072 49.109 55.3535 48.8636C55.2477 48.7288 55.1086 48.585 55.0028 48.4502C54.9455 48.3993 54.8969 48.3153 54.8396 48.2645C54.8153 48.2225 54.7912 48.1805 54.758 48.1717C54.5795 47.9109 55.0182 48.5253 54.9939 48.4833C54.1165 47.2544 53.323 45.9771 52.6224 44.6181C52.4704 44.258 52.2766 43.9221 52.1247 43.562C52.0608 43.4029 51.9727 43.2018 51.9089 43.0427C51.7327 42.6406 52.085 43.4449 52.0212 43.2858C51.9816 43.1687 51.9331 43.0847 51.8935 42.9676C51.5653 42.2054 51.3122 41.4277 51.0261 40.6412C50.4716 39.002 50.0342 37.3232 49.6719 35.6289C49.2392 33.6674 48.8905 31.6574 48.608 29.6652C48.6541 29.8905 48.667 30.1069 48.7131 30.3322C47.9053 24.4726 47.6562 18.5142 47.7229 12.5695C47.7378 11.1893 47.777 9.85113 47.825 8.47982C47.8642 7.14162 46.5716 5.87246 45.2399 5.94153C43.8396 6.13418 42.7739 7.19732 42.7412 8.64373C42.6292 11.8435 42.5834 15.061 42.6789 18.2808C42.7738 22.0329 43.0344 25.8293 43.487 29.5707C43.9946 33.5044 44.6767 37.4492 45.8602 41.2446C46.9007 44.6466 48.3231 48.08 50.4286 50.9512C51.445 52.3237 52.5454 53.6479 53.8912 54.7183C55.3848 55.8993 56.9164 56.8066 58.7264 57.469C59.0818 57.5998 59.4459 57.6974 59.7771 57.7861C59.98 56.1014 60.2161 54.4255 60.4191 52.7408C57.4198 53.0729 54.625 54.0986 51.8852 55.3166C49.1455 56.5345 46.4762 58.0197 44.0758 59.8255C42.88 60.7118 41.7504 61.6158 40.7421 62.7298C39.5723 64.049 38.632 65.5716 37.7005 67.0611C35.4525 70.6823 33.4184 74.4318 32.0202 78.4581C31.2335 80.7317 30.5705 83.074 29.8831 85.3742C29.1781 87.7407 28.4487 90.0652 27.7436 92.4316C29.4283 92.6346 31.1042 92.8707 32.7889 93.0737C33.3625 86.1645 34.2607 79.2359 33.845 72.3101C33.6129 68.8052 33.1159 65.2293 31.8744 61.9154C31.2625 60.2253 30.4916 58.599 29.5527 57.0698C28.4506 55.3548 27.1473 53.7279 25.7756 52.2246C24.2737 50.5445 22.6371 48.9702 20.8898 47.5437C19.9059 46.7122 18.8711 45.9381 17.7943 45.1882C16.9227 44.5997 16.0334 44.0775 15.1529 43.5221C15.325 43.6747 15.506 43.7942 15.6781 43.9467C15.8962 44.3246 16.09 44.6605 16.3082 45.0384C16.3543 45.2637 16.3674 45.4801 16.4135 45.7055C16.3845 45.9461 16.3643 46.1537 16.3353 46.3943C16.2401 46.6173 16.1538 46.8071 16.0586 47.03C15.906 47.2021 15.7864 47.383 15.6339 47.5551C15.3553 47.7999 14.9929 48.0931 14.6594 48.1457C14.7345 48.1304 14.7764 48.1061 14.8515 48.0908C15.0437 48.0358 15.2271 48.0139 15.4192 47.9589C15.945 47.8514 16.4949 47.7858 17.0448 47.7202C16.8195 47.7663 16.6032 47.7793 16.3778 47.8254C17.8864 47.6262 19.4279 47.436 20.9388 47.0955C22.675 46.7089 24.3474 46.1632 25.9801 45.5005C29.4556 44.0538 32.6401 42.1032 35.4102 39.5802C40.738 34.7967 44.2747 28.2202 46.1445 21.3744C47.2448 17.2682 47.7909 12.9781 47.8622 8.7382C47.8683 7.39113 46.6509 6.10668 45.2772 6.2C43.8728 6.14311 42.7408 7.18845 42.7412 8.64373Z" fill="white"/>
</svg>
