<svg width="48" height="71" viewBox="0 0 48 71" fill="none" xmlns="http://www.w3.org/2000/svg">
<path d="M10.9014 2.09222C11.0791 2.91372 11.2345 3.73521 11.3677 4.55672C11.4343 4.95637 11.5009 5.37821 11.5675 5.80006C11.5897 5.93328 11.7007 6.55497 11.6119 6.06651C11.6563 6.31074 11.6786 6.55496 11.7008 6.77699C11.9006 8.4644 12.056 10.174 12.1448 11.8836C12.3224 15.3251 12.3002 18.7887 12.0559 22.2079C11.9893 23.0516 11.9227 23.8953 11.8561 24.7612C11.8117 25.1387 11.7895 25.5383 11.7451 25.9158C11.7229 26.0934 11.7007 26.271 11.6785 26.4708C11.6785 26.5596 11.6563 26.6485 11.6563 26.7151C11.6341 26.8483 11.6563 26.7817 11.6785 26.5152C11.6785 26.5818 11.6563 26.6485 11.6563 26.7151C11.4565 28.136 11.1457 29.5348 10.7682 30.9114C10.5684 31.5997 10.3464 32.288 10.1021 32.954C9.96891 33.2871 9.85785 33.6201 9.72463 33.9532C9.70243 34.042 9.65805 34.1086 9.63585 34.1974C9.76906 33.7755 9.70248 34.0198 9.65807 34.1308C9.56926 34.3084 9.50263 34.5082 9.41382 34.6858C8.81434 35.9958 8.12606 37.2392 7.30456 38.4381C7.08253 38.7711 6.83836 39.1042 6.59413 39.415C6.52753 39.5038 6.39427 39.6149 6.6607 39.3262C6.59409 39.415 6.50528 39.5039 6.43867 39.5927C6.30546 39.7481 6.1944 39.9035 6.06118 40.0589C5.55052 40.6584 5.0177 41.2135 4.44042 41.7685C4.15179 42.035 3.86315 42.3014 3.55231 42.5678C3.3969 42.701 3.21925 42.8121 3.08604 42.9453C3.37467 42.6566 3.26372 42.812 3.15271 42.9009C3.0639 42.9675 2.97502 43.0341 2.86401 43.1007C2.22013 43.5669 1.53191 44.011 0.82142 44.3885C0.199743 44.7215 -0.155588 45.5874 0.0664397 46.2757C0.155251 46.5421 0.288554 46.8085 0.488379 47.0084C0.732609 47.2748 1.28763 47.5412 1.66508 47.4968C3.15267 47.3192 4.64027 47.2304 6.12785 47.2748C6.86055 47.297 7.57099 47.3414 8.30368 47.408C8.4813 47.4302 8.68113 47.4524 8.85875 47.4746C8.99197 47.4968 9.65805 47.5857 9.08078 47.4968C9.45822 47.5634 9.83569 47.6078 10.2131 47.6744C11.6563 47.9187 13.0995 48.2739 14.4982 48.718C15.2087 48.94 15.9192 49.1843 16.6075 49.4729C16.7629 49.5395 16.8961 49.5839 17.0515 49.6505C17.1404 49.6949 17.2292 49.7171 17.318 49.7615C16.8518 49.5839 17.1626 49.6949 17.2736 49.7393C17.6288 49.8947 17.9619 50.0501 18.3171 50.2056C19.6715 50.8494 20.9815 51.5599 22.2248 52.3592C22.8465 52.7589 23.446 53.1585 24.0233 53.6026C24.1787 53.7136 24.334 53.8246 24.4895 53.9356C24.5561 54.0022 24.6449 54.0466 24.7115 54.1132C24.3562 53.8468 24.5117 53.9578 24.6005 54.0245C24.9335 54.2909 25.2444 54.5351 25.5553 54.8015C26.6654 55.7341 27.7311 56.7554 28.708 57.8211C29.2186 58.3762 29.7072 58.9534 30.1956 59.5529C30.2844 59.6861 30.3954 59.7972 30.4842 59.9304C30.129 59.5085 30.5508 60.0192 30.6174 60.1302C30.8395 60.441 31.0615 60.7519 31.2835 61.0627C32.216 62.4171 33.0598 63.838 33.7703 65.3034C33.9479 65.6809 34.1255 66.0583 34.2809 66.4136C34.4141 66.7244 34.1255 66.0361 34.2587 66.3692C34.3031 66.4802 34.3475 66.6134 34.3919 66.7244C34.4585 66.902 34.5251 67.0797 34.5917 67.2573C34.9026 68.0566 35.169 68.8781 35.391 69.6996C35.6353 70.5433 36.59 71.1428 37.4337 70.8541C37.8334 70.7209 38.233 70.4767 38.4329 70.0992C38.6549 69.6774 38.677 69.2777 38.6104 68.8115C38.6104 68.7893 38.5438 68.3674 38.5882 68.6338C38.6326 68.9003 38.5661 68.5006 38.5661 68.4784C38.5439 68.323 38.5216 68.1676 38.4994 68.0122C38.455 67.6569 38.4106 67.3017 38.3884 66.9464C38.344 66.3914 38.2996 65.8363 38.2774 65.2812C38.2552 64.4153 38.2774 63.5272 38.2552 62.6613C38.2552 61.5734 38.1886 60.5076 38.0776 59.4197C37.9888 58.5982 37.8778 57.7767 37.7668 56.9552C37.7002 56.4667 37.6336 55.9783 37.567 55.4676C37.5448 55.3788 37.5447 55.29 37.5225 55.2012C37.4559 54.7793 37.5669 55.4676 37.5225 55.2012C37.5003 54.957 37.4559 54.7349 37.4337 54.4907C37.2339 52.9143 37.0563 51.3157 37.0119 49.7171C36.9897 48.8956 36.9896 48.0963 37.0562 47.2748C37.0784 46.8974 37.1006 46.4977 37.1673 46.1203C37.0784 46.5865 37.2117 45.8982 37.2117 45.8094C37.2561 45.5874 37.2783 45.3876 37.3227 45.1656C37.4559 44.4773 37.6558 43.8112 37.8778 43.1673C37.9666 42.8787 38.0776 42.59 38.1886 42.3014C38.233 42.1682 38.2775 42.035 38.3441 41.924C38.3663 41.8351 38.4107 41.7685 38.4329 41.6797C38.5883 41.3245 38.3662 41.8573 38.4329 41.7019C38.9657 40.5252 39.5651 39.3928 40.2756 38.3271C40.4755 38.0385 40.7641 37.7276 40.9417 37.4168C40.9195 37.439 40.6975 37.7276 40.8752 37.5056C40.9418 37.4168 41.0084 37.3502 41.075 37.2614C41.186 37.1282 41.297 36.9949 41.408 36.8617C41.8743 36.3289 42.3628 35.8182 42.8956 35.3297C43.1621 35.0855 43.4507 34.8413 43.7393 34.597C43.9613 34.4194 43.6727 34.6636 43.6505 34.6636C43.7393 34.6192 43.8059 34.5304 43.8948 34.486C44.0502 34.375 44.2056 34.264 44.3388 34.153C44.9383 33.7311 45.56 33.3759 46.226 33.0429C46.8477 32.732 47.2029 31.8217 46.9809 31.1556C46.7367 30.4229 46.1372 29.9789 45.3823 29.9345C44.6052 29.8901 43.8281 29.8235 43.051 29.7346C42.8734 29.7124 42.6958 29.6902 42.5181 29.668C42.4293 29.668 42.3405 29.6236 42.2517 29.6236C42.6957 29.6014 42.4071 29.6458 42.2739 29.6236C41.8742 29.557 41.4746 29.5126 41.0972 29.446C39.5874 29.1796 38.0998 28.8465 36.6566 28.4247C35.9239 28.2026 35.2134 27.9806 34.5029 27.7142C34.1699 27.581 33.8368 27.4699 33.4816 27.3367C33.4372 27.3145 32.971 27.1369 32.971 27.1369C33.0376 27.1591 33.1042 27.2035 33.1708 27.2257C33.1042 27.2035 33.0376 27.1591 32.971 27.1369C32.8821 27.0925 32.7712 27.0481 32.6824 27.0037C31.2836 26.382 29.9514 25.6715 28.6636 24.85C28.0198 24.4282 27.3759 24.0063 26.7764 23.5401C26.7098 23.4957 26.6653 23.4513 26.5987 23.4069C26.9762 23.6733 26.6653 23.4735 26.5987 23.4069C26.4655 23.2958 26.3101 23.1848 26.1769 23.0738C25.8661 22.8296 25.5774 22.5632 25.2888 22.2967C24.7337 21.7861 24.1787 21.2532 23.668 20.6981C23.1352 20.1208 22.6688 19.4992 22.1582 18.9219C22.469 19.2771 22.0917 18.8331 22.025 18.7221C21.914 18.5667 21.803 18.4334 21.692 18.278C21.4478 17.945 21.2257 17.6119 21.0037 17.2789C20.5596 16.6128 20.16 15.9245 19.7603 15.2362C18.9832 13.8597 18.2949 12.4387 17.6511 10.9733C17.6289 10.9067 17.5845 10.8401 17.5623 10.7735C17.5401 10.7069 17.4957 10.6403 17.4735 10.5737C17.5623 10.7957 17.5844 10.8179 17.5178 10.6625C17.429 10.4626 17.3403 10.2406 17.2515 10.0408C17.096 9.64114 16.9406 9.24151 16.7852 8.84186C16.4743 8.02036 16.1635 7.17664 15.8748 6.35513C15.2754 4.64552 14.7203 2.93592 14.1652 1.2263C13.8988 0.404802 12.9885 -0.216864 12.1226 0.0717717C11.2345 0.316002 10.6128 1.20411 10.9014 2.09222C12.8997 8.33119 14.9867 14.77 18.8722 20.1208C20.8483 22.8518 23.224 25.2053 26.0215 27.1369C28.6637 28.9575 31.6166 30.3341 34.6584 31.3332C38.122 32.4656 41.741 33.0873 45.3823 33.2871C45.0936 32.2436 44.8272 31.2222 44.5386 30.1787C39.4986 32.6876 35.9906 37.6832 34.4586 43.0341C33.5261 46.2979 33.5704 49.6949 33.9479 53.0253C34.0589 53.9578 34.1699 54.8682 34.3031 55.8007C34.3253 56.0227 34.3697 56.2225 34.3919 56.4445C34.4141 56.5333 34.4142 56.6222 34.4364 56.711C34.503 57.1328 34.392 56.4445 34.4364 56.7332C34.503 57.155 34.5473 57.5991 34.6139 58.0209C34.7694 59.3309 34.9248 60.6409 34.947 61.9508C34.9692 62.9499 34.947 63.9491 34.9692 64.9482C35.0136 66.5246 35.1912 68.101 35.4133 69.6774C36.479 69.3888 37.5447 69.0779 38.6327 68.7893C36.923 62.7501 33.3706 57.2883 28.708 53.1363C24.0454 48.9622 18.2728 45.9204 12.1448 44.6549C8.7256 43.9444 5.17316 43.7224 1.70953 44.1664C1.99817 45.21 2.26456 46.2313 2.55319 47.2748C8.01507 44.2774 11.7007 38.8822 13.6323 33.0651C14.6315 30.0455 15.0755 26.9149 15.3198 23.7399C15.6084 20.2319 15.6972 16.7238 15.564 13.2158C15.4086 9.19709 14.9867 5.17839 14.1652 1.2485C13.9876 0.404797 12.9441 -0.172464 12.1226 0.093969C11.1679 0.338199 10.7238 1.1819 10.9014 2.09222Z" fill="white"/>
</svg>
