<svg width="26" height="34" viewBox="0 0 26 34" fill="none" xmlns="http://www.w3.org/2000/svg">
<path d="M19.4809 11.4086C19.6478 11.5755 19.8741 11.6692 20.1101 11.6692C20.3461 11.6692 20.5725 11.5755 20.7394 11.4086C20.9062 11.2417 21 11.0153 21 10.7793C21 10.5433 20.9062 10.317 20.7394 10.1501L13.6292 3.03998C13.5467 2.95721 13.4486 2.89154 13.3406 2.84674C13.2327 2.80193 13.1169 2.77887 13 2.77887C12.8831 2.77887 12.7673 2.80193 12.6594 2.84674C12.5514 2.89154 12.4533 2.95721 12.3708 3.03998L5.26064 10.1501C5.17801 10.2327 5.11246 10.3308 5.06774 10.4388C5.02302 10.5468 5 10.6625 5 10.7793C5 10.8962 5.02302 11.0119 5.06774 11.1199C5.11246 11.2278 5.17801 11.3259 5.26064 11.4086C5.34328 11.4912 5.44138 11.5568 5.54934 11.6015C5.65731 11.6462 5.77303 11.6692 5.88989 11.6692C6.00675 11.6692 6.12247 11.6462 6.23043 11.6015C6.3384 11.5568 6.4365 11.4912 6.51913 11.4086L12.1112 5.8147V17.0007C12.1112 20.4935 11.6722 23.0087 10.7532 24.9516C9.84311 26.8713 8.4282 28.3058 6.32183 29.5696C6.11958 29.6907 5.97375 29.8873 5.91642 30.116C5.85908 30.3446 5.89493 30.5867 6.01609 30.789C6.13725 30.9912 6.33378 31.137 6.56246 31.1944C6.79114 31.2517 7.03323 31.2159 7.23548 31.0947C9.57293 29.6905 11.2687 28.016 12.3583 25.7141C13.4391 23.4336 13.8888 20.618 13.8888 17.0007V5.8147L19.4809 11.4086Z" fill="white"/>
</svg>
