<?xml version="1.0" encoding="utf-8"?>
<!-- Generator: Adobe Illustrator 25.4.1, SVG Export Plug-In . SVG Version: 6.00 Build 0)  -->
<svg version="1.1" id="Layer_1" xmlns="http://www.w3.org/2000/svg" xmlns:xlink="http://www.w3.org/1999/xlink" x="0px" y="0px"
	 viewBox="0 0 287.84 138.57" style="enable-background:new 0 0 287.84 138.57;" xml:space="preserve">
<style type="text/css">
	.st0{fill:#94D40D;}
	.st1{fill:#6A6E6E;}
</style>
<g>
	<path class="st0" d="M61.27,54.93c0,0,6.86-0.71,7.26-11.19c0.29-7.79-5.56-13.46-10.29-15.12c-2.36-0.82-5.56-1.28-8.45-1.28
		H28.48c-3.79,0-5.2,3.94-5.2,3.94s0,49.51,0,52.82s5.35,4.42,5.35,4.42h27.91c0,0,11.84-0.45,13.56-15.14
		C71.98,57.41,61.27,54.93,61.27,54.93z M37.64,40.41h11.21c1.36,0,2.71,0.41,3.77,1.26c0.97,0.78,1.86,2.02,1.86,3.9
		c0,1.83-0.82,3.05-1.74,3.84c-1.06,0.9-2.45,1.32-3.84,1.32H37.64V40.41z M54.9,73.68c-1.16,0.7-2.51,1.01-3.86,1.01h-13.4V64.37
		H50.9c1.38,0,2.76,0.31,3.94,1.01c1.28,0.77,2.57,2.06,2.57,4.15S56.15,72.91,54.9,73.68z"/>
	<path class="st0" d="M87.93,42.74c0,0-8.39-5.16-4.12-11.78c4.22-6.54,11.39,0,11.39,0s7.68-6.77,11.9,1.07
		c2.32,6.2-4.83,10.71-4.83,10.71V73.6c0,0,8.44,6.65,4.21,13.3c-3.45,5.43-10.99,0.48-10.99,0.48s-7.47,4.95-11.2-0.1
		c-4.14-5.6,3.77-13.28,3.77-13.28L87.93,42.74z"/>
	<path class="st0" d="M165.43,31.52c0,0,0.4-4.79,4.79-4.79h26.91c3.92,0,7.21,3.1,7.27,7.02c0,0.06,0,0.12,0,0.18
		c0,3.55-1.23,5.39-2.46,6.34c-0.91,0.71-2.06,1.02-3.21,1.02h-18.49v10.48h10.09c2.89,0,5.32,2.29,5.36,5.19c0,0.05,0,0.09,0,0.14
		c0,2.13-0.75,3.55-1.64,4.47c-1.09,1.13-2.65,1.69-4.22,1.69h-9.29v11.69h15.57c3.11,0,6.08,1.62,7.51,4.38
		c0.48,0.93,0.8,1.99,0.8,3.18c0,4.74-3.51,6.04-6.04,6.04s-32.95,0-32.95,0l6.55-18.53l-6.55-10.68V31.52z"/>
	<path class="st1" d="M274.95,106.53c-1.91-1.92-9.84,7.15-17.5,7.15c-7.67,0-5.37-4.34-5.37-4.34s13.24-3.55,13.24-14.77
		c0-6.87-5.18-7.78-8.78-7.78c-6.32,0-13.05,8.2-13.05,15.36c0,0-11.8,7.8-7.53-10.79c0.84-2.81-0.46-5.02-2.6-4.83
		c-2.14,0.19-6.59,2.01-11.15,12.32c0,0,0.93-12.04-1.95-12.04c-2.89,0-3.7,3.55-3.7,3.55s-0.86,23.31-10.71,23.31
		c-3.59,0-5.11-5.08-1.2-17.09c0.33-1.02,0.56-2.07,0.55-3.14c-0.07-5.02-3.02-7.3-8.47-7.3c-6.05,0-12.28,3.41-18.79,18.42
		c0,0-11.57,14.39-28.44,14.39c-16.87,0-15.12-13.06-15.12-16.05c0-2.91,5.72-39.21,25.94-39.21c6.75,0,9.11,3.88,9.11,9.34
		c0,4.97-3.67,11.42-12.79,13.16c-1.37,0.26-2.78,0.22-4.17,0.02c-1.35-0.2-3.24,0.09-3.05,3.34c0.22,3.66,4.78,4.19,7.09,4.19
		c4.89,0,15.59-5.05,18.6-14.53s0.18-17.01-4.34-20.02c-4.52-3.01-13.71-3.56-22.85,2.04c-9.29,5.68-22.46,19.62-22.46,40.95
		c0,21.34,14.31,24.34,24.34,24.34c10.03,0,21.12-6.43,27.71-14.05c0,0,0.77,7.86,10.17,7.86c5.63,0,9.71-6.65,9.71-6.65
		s1.54,7.16,7.04,7.16c5.49,0,8.94-5.62,8.94-5.62s1.21,4.47,4.27,4.47c3.07,0,8.38-25.05,11.83-25.05c0,0-1.7,14.2,7.77,15.18
		c4.6,0,6.03-1.38,6.03-1.38s-1.6,11.06,12.97,11.06c9.58,0,18.71-8.63,18.71-8.63S276.87,108.44,274.95,106.53z M188.37,113.76
		c-10.19,0,0.89-21.53,9.16-21.53C197.53,92.23,198.57,113.76,188.37,113.76z M250.4,104.14c0,0,0.78-11.66,6.19-11.38
		c1.36,0.07,2.58,0.94,3.22,2.14C262.6,100.06,252.57,104.45,250.4,104.14z"/>
	<path class="st0" d="M117.58,27.46h37.4c0,0,3.93-0.32,3.93,6.37c0,5.62-4.16,5.62-4.16,5.62h-11.09v42.21
		c0,2.13-0.73,4.25-2.2,5.79c-1.09,1.14-2.65,2.09-4.84,2.09c-1.37,0-2.52-0.33-3.49-0.84c-2.6-1.34-4.11-4.16-4.11-7.08V39.29
		h-11.44c0,0-4.16,0-4.16-6.18C113.41,27.46,117.58,27.46,117.58,27.46z"/>
	<path class="st0" d="M215.24,14.97h8.13c0,0,0.85-0.07,0.85,1.38c0,1.22-0.9,1.22-0.9,1.22h-2.41v7.23c0,0.46-0.16,0.92-0.48,1.26
		c-0.24,0.25-0.58,0.45-1.05,0.45c-0.3,0-0.55-0.07-0.76-0.18c-0.56-0.29-0.89-0.9-0.89-1.54v-7.26h-2.49c0,0-0.9,0-0.9-1.34
		C214.34,14.97,215.24,14.97,215.24,14.97z"/>
	<g>
		<g>
			<path class="st0" d="M225.65,16.53c0,2.48,0,4.96,0,7.43c0,0.35,0,0.7,0,1.05c0,0.78,0.69,1.54,1.5,1.5
				c0.81-0.04,1.5-0.66,1.5-1.5c0-2.48,0-4.96,0-7.43c0-0.35,0-0.7,0-1.05c0-0.78-0.69-1.54-1.5-1.5
				C226.34,15.07,225.65,15.69,225.65,16.53L225.65,16.53z"/>
		</g>
	</g>
	<g>
		<g>
			<path class="st0" d="M234.99,16.53c0,2.48,0,4.96,0,7.43c0,0.35,0,0.7,0,1.05c0,0.78,0.69,1.54,1.5,1.5
				c0.81-0.04,1.5-0.66,1.5-1.5c0-2.48,0-4.96,0-7.43c0-0.35,0-0.7,0-1.05c0-0.78-0.69-1.54-1.5-1.5
				C235.68,15.07,234.99,15.69,234.99,16.53L234.99,16.53z"/>
		</g>
	</g>
	<g>
		<g>
			<path class="st0" d="M226.09,17.59c1.28,1.52,2.57,3.03,3.85,4.55c0.18,0.22,0.37,0.43,0.55,0.65c0.51,0.6,1.6,0.56,2.12,0
				c0.59-0.64,0.54-1.48,0-2.12c-1.28-1.52-2.57-3.03-3.85-4.55c-0.18-0.22-0.37-0.43-0.55-0.65c-0.51-0.6-1.6-0.56-2.12,0
				C225.51,16.11,225.55,16.95,226.09,17.59L226.09,17.59z"/>
		</g>
	</g>
	<g>
		<g>
			<path class="st0" d="M232.61,22.79c1.45-1.51,2.89-3.03,4.34-4.54c0.21-0.22,0.41-0.43,0.62-0.65c0.54-0.57,0.61-1.56,0-2.12
				c-0.59-0.54-1.54-0.61-2.12,0c-1.45,1.51-2.89,3.03-4.34,4.54c-0.21,0.22-0.41,0.43-0.62,0.65c-0.54,0.57-0.61,1.56,0,2.12
				C231.08,23.32,232.03,23.39,232.61,22.79L232.61,22.79z"/>
		</g>
	</g>
	<circle class="st1" cx="81.8" cy="66.74" r="3.27"/>
	<circle class="st1" cx="108.61" cy="66.74" r="3.27"/>
	<path class="st1" d="M95.41,87.29c0,0-7.26-4.72-5.82-7.89c1.44-3.18,10.48-3.24,11.83,0.34C102.52,82.63,95.41,87.29,95.41,87.29z
		"/>
</g>
</svg>
