<svg width="1444" height="188" viewBox="0 0 1444 188" fill="none" xmlns="http://www.w3.org/2000/svg">
<path fill-rule="evenodd" clip-rule="evenodd" d="M0 44C0 44 56.5 25.5612 123 38C189.5 50.4388 297 118 397.5 118C517.833 110.78 601.667 0 722 0C842.333 0 962.667 96.34 1083 118C1192.5 137.71 1303 90 1367 70.5L1444 44V187.72H1383.83C1323.67 187.72 1203.33 187.72 1083 187.72C962.667 187.72 842.333 187.72 722 187.72C601.667 187.72 481.333 187.72 361 187.72C240.667 187.72 120.333 187.72 60.1667 187.72H0V44Z" fill="#CBE4CB"/>
</svg>
