<svg width="206" height="264" viewBox="0 0 206 264" fill="none" xmlns="http://www.w3.org/2000/svg">
<path d="M73.9999 164.917C55.8292 164.917 41.0552 150.143 41.0552 131.973C41.0552 113.802 55.8292 99.0278 73.9999 99.0278C92.1706 99.0278 106.945 113.802 106.945 131.973C106.917 150.143 92.143 164.917 73.9999 164.917ZM73.9999 112.863C63.4509 112.863 54.8627 121.451 54.8627 132C54.8627 142.549 63.4509 151.137 73.9999 151.137C84.5488 151.137 93.1372 142.549 93.1372 132C93.1372 121.451 84.5488 112.863 73.9999 112.863Z" fill="#4F8585"/>
<path d="M74.0551 190.019C70.0785 190.019 66.1019 189.605 62.1806 188.804C47.0199 185.656 33.9857 176.764 25.4802 163.813C16.9748 150.861 14.0475 135.369 17.1956 120.181C19.9295 107.036 27.1923 95.1891 37.6032 86.7941C47.9036 78.5096 60.7999 73.9531 73.9446 73.9531C77.9212 73.9531 81.8978 74.3673 85.8191 75.1682C100.98 78.3163 114.014 87.2083 122.52 100.16C131.025 113.111 133.952 128.603 130.804 143.792C128.07 156.936 120.807 168.783 110.397 177.178C100.068 185.463 87.1722 190.019 74.0551 190.019ZM73.9446 87.7607C53.1505 87.7607 34.9522 102.562 30.6994 122.97C25.7287 146.829 41.1103 170.302 64.9697 175.273C67.9522 175.908 71.0174 176.212 74.0274 176.212C94.8216 176.212 113.02 161.41 117.273 141.003C119.675 129.432 117.438 117.64 110.976 107.754C104.514 97.8677 94.573 91.1021 83.0023 88.6995C80.0199 88.092 76.9547 87.7607 73.9446 87.7607Z" fill="#4F8585"/>
<path d="M74.0829 214.293C71.5423 214.293 68.974 214.183 66.4058 213.934C44.5071 211.918 24.7347 201.48 10.6787 184.579C-3.37741 167.679 -9.97741 146.305 -7.96151 124.434C-6.05607 103.888 3.38828 84.9164 18.687 71.0813C33.8753 57.3013 53.482 49.7349 73.8895 49.7349C76.4301 49.7349 78.9982 49.8453 81.5665 50.0938C103.465 52.1097 123.238 62.5482 137.294 79.4486C151.35 96.3491 157.95 117.723 155.934 139.622C154.028 160.168 144.584 179.139 129.285 192.974C114.097 206.699 94.4904 214.293 74.0829 214.293ZM73.8895 63.5148C38.3489 63.5148 9.07693 90.2462 5.79074 125.704C2.31124 163.316 30.0644 196.73 67.6761 200.209C69.8025 200.403 71.9565 200.513 74.0829 200.513C109.623 200.513 138.895 173.782 142.182 138.324C145.661 100.712 117.908 67.298 80.2963 63.8185C78.1699 63.5976 76.0159 63.5148 73.8895 63.5148Z" fill="#4F8585"/>
<path d="M74.0552 239.036C72.8125 239.036 71.5422 239.008 70.2719 238.981C55.8292 238.484 41.9113 235.17 28.9046 229.122C16.3397 223.296 5.18324 215.177 -4.31634 205.014C-13.8159 194.852 -21.1063 183.143 -26.0494 170.219C-31.1858 156.826 -33.5055 142.715 -33.0084 128.272C-32.0419 100.353 -20.4435 74.3122 -0.312157 54.9264C19.7364 35.5959 46.1088 24.9365 73.9172 24.9365C75.1598 24.9365 76.43 24.9641 77.7003 24.9917C92.143 25.4888 106.061 28.8026 119.068 34.8503C131.633 40.6771 142.789 48.7959 152.289 58.9583C161.788 69.1206 169.079 80.8294 174.022 93.7532C179.158 107.147 181.478 121.258 180.981 135.7C180.014 163.619 168.416 189.66 148.284 209.046C128.236 228.404 101.864 239.036 74.0552 239.036ZM73.9172 38.7441C23.4368 38.7441 -17.4611 78.2888 -19.2009 128.769C-20.9959 180.161 19.3774 223.406 70.7414 225.201C71.846 225.229 72.9506 225.256 74.0276 225.256C124.508 225.256 165.406 185.711 167.146 135.231C168.941 83.8395 128.567 40.5942 77.2033 38.7993C76.1263 38.7717 75.0218 38.7441 73.9172 38.7441Z" fill="#4F8585"/>
<path d="M74 264C56.1883 264 38.9012 260.52 22.6083 253.617C6.89537 246.961 -7.2159 237.462 -19.3389 225.339C-31.4619 213.216 -40.9891 199.105 -47.6167 183.392C-54.4929 167.099 -58 149.812 -58 132C-58 114.188 -54.5205 96.9012 -47.6167 80.6083C-40.9615 64.8954 -31.4619 50.7841 -19.3389 38.6611C-7.2159 26.5381 6.89537 17.0109 22.6083 10.3833C38.9012 3.50714 56.1883 0 74 0C91.8117 0 109.099 3.47952 125.392 10.3833C141.105 17.0385 155.216 26.5381 167.339 38.6611C179.462 50.7841 188.989 64.8954 195.617 80.6083C202.493 96.9012 206 114.188 206 132C206 149.812 202.52 167.099 195.617 183.392C188.961 199.105 179.462 213.216 167.339 225.339C155.216 237.462 141.105 246.989 125.392 253.617C109.099 260.52 91.8117 264 74 264ZM74 13.7799C8.82845 13.7799 -44.1925 66.8008 -44.1925 131.972C-44.1925 197.144 8.82845 250.165 74 250.165C139.172 250.165 192.192 197.144 192.192 131.972C192.192 66.8284 139.172 13.7799 74 13.7799Z" fill="#4F8585"/>
</svg>
