<svg width="90" height="117" viewBox="0 0 90 117" fill="none" xmlns="http://www.w3.org/2000/svg">
<path d="M30.6153 3.74558C31.1143 1.74796 32.2334 0.749189 33.9875 0.749189H50.2737C51.2718 0.749189 51.6423 1.27884 51.4003 2.33818C51.1508 3.39752 50.682 4.58545 49.994 5.8945C49.306 7.20354 48.5574 8.45967 47.7484 9.64007C46.9318 10.828 46.4706 11.6074 46.3421 11.9857C44.845 15.2319 43.6276 18.5763 42.6901 22.0116C41.7525 25.4469 40.9738 28.973 40.3462 32.5974C40.0967 33.2255 40.316 33.6946 41.004 34.0048C41.6921 34.3151 42.3424 34.474 42.9699 34.474H55.1431C56.0126 34.474 56.7308 34.194 57.2979 33.6341C57.8574 33.0741 58.2657 32.4159 58.5152 31.6667C58.8933 29.5405 59.2032 27.4823 59.4528 25.4847C59.7023 23.7368 59.8913 21.9586 60.0123 20.1426C60.1332 18.3341 60.2013 16.7376 60.2013 15.368C60.2013 12.7424 59.8535 10.1848 59.173 7.6878C58.485 5.19079 58.1447 3.00407 58.1447 1.12752C58.1447 0.37842 58.6437 0 59.6418 0C61.1389 0.128634 63.2938 0.189168 66.0989 0.189168C68.904 0.189168 71.6864 0.257268 74.4311 0.378335C77.1757 0.506969 79.5498 0.628037 81.5459 0.756671C83.5419 0.885305 84.4796 1.13509 84.351 1.50586C84.2225 2.25496 83.6327 3.88176 82.5741 6.37878C81.5156 8.87579 80.389 11.6225 79.202 14.6189C78.0149 17.6153 76.8581 20.5512 75.7391 23.4266C74.6125 26.3019 73.9245 28.4206 73.6825 29.7977L73.1229 33.3541C76.1171 32.8547 78.7407 32.2948 80.9864 31.6667C83.232 31.0463 85.7271 30.6073 88.4717 30.3576C88.9707 30.2366 89.2807 30.7966 89.4093 32.0451C89.5302 33.2936 89.5302 34.8296 89.4093 36.638C89.2807 38.4465 89.0615 40.4139 88.7515 42.5401C88.4415 44.6663 88.0634 46.6336 87.6249 48.4421C87.1864 50.2581 86.7176 51.7866 86.2186 53.0351C85.7195 54.2836 85.281 54.9117 84.9105 54.9117C84.283 54.9117 83.2546 54.662 81.818 54.1626C80.3815 53.6632 78.8844 53.1335 77.3269 52.5736C75.7618 52.0136 74.3328 51.4839 73.0172 50.9769C71.7091 50.4775 70.8017 50.2278 70.3027 50.2278L67.4976 66.3374C70.3708 65.838 72.9869 65.1191 75.361 64.1809C77.7276 63.2426 80.2303 62.4632 82.8464 61.8352C83.0959 61.7141 83.2849 61.8352 83.4059 62.2135C83.5269 62.5919 83.5949 62.9021 83.5949 63.1518C83.5949 64.2793 83.4362 66.2163 83.1262 68.963C82.8162 71.7097 82.4381 74.5548 81.9996 77.4907C81.5611 80.4266 81.0922 82.9539 80.5932 85.0801C80.0941 87.2064 79.5951 88.1446 79.0961 87.8873C78.5971 87.6376 77.6596 87.2971 76.291 86.8583C74.9149 86.4194 73.4178 85.92 71.7998 85.3601C70.1742 84.8001 68.6771 84.3008 67.3086 83.8619C65.9325 83.423 64.995 83.2036 64.5035 83.2036C64.0045 86.3286 63.5357 89.3251 63.0972 92.2004C62.6587 95.0758 62.4394 98.1327 62.4394 101.379C62.4394 103.876 62.7796 106.373 63.4677 108.87C64.1557 111.367 64.496 113.682 64.496 115.801C64.496 116.8 64.0574 117.171 63.1879 116.928C61.8118 116.679 59.8459 116.52 57.2903 116.459C54.7272 116.391 52.1413 116.368 49.5177 116.368C46.894 116.368 44.4896 116.338 42.312 116.278C40.1269 116.21 38.7206 116.119 38.1006 115.998C37.8511 115.998 37.9116 115.597 38.2896 114.779C38.6677 113.97 39.0987 113.062 39.5977 112.063C40.0967 111.064 40.5957 110.096 41.0947 109.157C41.5938 108.219 41.9037 107.689 42.0323 107.561C42.6523 106.312 43.4009 104.655 44.278 102.597C45.1475 100.539 45.964 98.3824 46.7126 96.1351C47.4611 93.8878 48.0811 91.7312 48.5877 89.6731C49.0867 87.6149 49.3362 85.9579 49.3362 84.7094C49.3362 83.2111 48.5196 82.4621 46.9016 82.4621H34.736C33.859 82.4621 33.1104 82.742 32.4904 83.302C31.8628 83.8619 31.4318 84.5202 31.1823 85.2693C30.9328 87.2669 30.6833 89.2645 30.4338 91.2622C30.1843 93.0101 29.9953 94.7958 29.8743 96.6042C29.7458 98.4126 29.6853 100.009 29.6853 101.379C29.6853 103.876 29.9953 106.373 30.6228 108.87C31.2428 111.367 31.5604 113.682 31.5604 115.801C31.5604 116.55 31.1219 116.928 30.2523 116.928C29.3828 116.928 27.659 116.898 25.1034 116.838C22.5402 116.769 19.8939 116.709 17.1492 116.648C14.4046 116.58 11.8717 116.459 9.56558 116.27C7.25193 116.081 5.85319 115.801 5.35417 115.43C5.10466 115.309 5.22563 114.711 5.73222 113.652C6.23124 112.593 6.79073 111.465 7.41829 110.277C8.03829 109.089 8.66584 107.969 9.2934 106.902C9.91339 105.843 10.2914 105.185 10.42 104.935C11.7885 102.06 12.9151 99.1617 13.7921 96.2259C14.6616 93.29 15.4102 90.2633 16.0377 87.1382C16.1587 86.5178 16.2571 85.92 16.3176 85.3601C16.378 84.8001 16.5368 84.21 16.7863 83.5819C16.1588 83.7106 15.2212 83.9905 13.9812 84.4218C12.7336 84.8607 11.3575 85.3298 9.86047 85.8292C8.3634 86.3286 6.89652 86.7675 5.45994 87.1382C4.02336 87.5166 2.86656 87.6982 1.99705 87.6982C0.999008 87.6982 0.5 87.3879 0.5 86.7599C0.5 85.6325 0.620975 83.7635 0.878048 81.1379C1.12756 78.5122 1.46779 75.8336 1.90633 73.0793C2.34486 70.3326 2.81363 67.8356 3.31265 65.5883C3.81168 63.341 4.31069 62.153 4.80971 62.032C5.05922 62.5314 5.86831 63.061 7.24441 63.6209C8.61294 64.1809 10.1478 64.6803 11.8339 65.1191C13.52 65.558 15.1077 65.9363 16.6048 66.2466C18.1019 66.5568 19.1 66.7157 19.599 66.7157L22.5931 50.6061C21.9655 50.7348 21.028 51.0148 19.788 51.4461C18.5405 51.885 17.1643 52.3541 15.6672 52.8535C14.1702 53.3529 12.7034 53.7918 11.2668 54.1626C9.83021 54.5409 8.61293 54.7225 7.61489 54.7225C6.61684 54.7225 6.11774 54.4123 6.11774 53.7842C6.11774 52.6568 6.26895 50.7272 6.58651 47.9729C6.89651 45.2262 7.27465 42.3811 7.71318 39.4453C8.15172 36.5094 8.62049 33.9822 9.11951 31.8559C9.61853 29.7297 10.1175 28.7989 10.6166 29.0486C11.1156 29.2983 12.0834 29.6766 13.5199 30.176C14.9565 30.6754 16.4536 31.1749 18.0112 31.6743C19.5688 32.1737 21.0355 32.6428 22.4116 33.0817C23.7802 33.5206 24.7177 33.74 25.2167 33.74L30.6455 3.76072L30.6153 3.74558ZM34.736 65.2024C34.736 66.7006 35.545 67.4496 37.1706 67.4496H49.3362C51.2113 67.4496 52.3303 66.5114 52.7084 64.6424C53.0864 62.7735 53.5779 60.6169 54.2055 58.1804C54.8255 55.7439 55.1431 53.5875 55.1431 51.7185C55.1431 51.0981 54.8935 50.5683 54.3945 50.1294C53.8955 49.6906 53.3359 49.4711 52.7084 49.4711H40.3538C39.6052 49.4711 38.887 49.7512 38.1989 50.3111C37.5109 50.8711 37.1026 51.5294 36.9816 52.2785C36.6036 54.2761 36.1424 56.4628 35.5753 58.8387C35.0158 61.2147 34.736 63.3334 34.736 65.2099V65.2024Z" fill="#549B51"/>
</svg>
