<svg width="1440" height="239" viewBox="0 0 1440 239" fill="none" xmlns="http://www.w3.org/2000/svg">
<path d="M482.339 114.62C285.264 96.5356 -2 0.359841 -2 0.359841V238.5H1441V46.2878C1441 46.2878 1311.88 -4.75188 1217.61 0.359839C1131.47 5.03106 1052.83 27.2445 967.179 60.8503C778.799 134.765 681.31 132.878 482.339 114.62Z" fill="#549B51"/>
<g opacity="0.8" clip-path="url(#clip0_505_2656)">
<path fill-rule="evenodd" clip-rule="evenodd" d="M1417.26 131.49C1423.21 123.24 1432.18 119.534 1437.3 123.21C1442.42 126.885 1441.75 136.552 1435.81 144.801C1429.86 153.051 1420.89 156.757 1415.77 153.081C1410.65 149.405 1411.32 139.738 1417.26 131.49Z" fill="#9DD67D"/>
<path fill-rule="evenodd" clip-rule="evenodd" d="M1388.88 82.3229C1399 81.2985 1406.69 75.3856 1406.07 69.113C1405.44 62.8408 1396.74 58.5863 1386.62 59.6094C1376.5 60.6335 1368.81 66.5469 1369.43 72.8188C1370.06 79.0902 1378.76 83.3453 1388.88 82.3229Z" fill="#9DD67D"/>
<path fill-rule="evenodd" clip-rule="evenodd" d="M1388.96 119.643C1396.5 112.819 1406.04 111.074 1410.28 115.742C1414.51 120.411 1411.82 129.727 1404.28 136.549C1396.74 143.372 1387.2 145.118 1382.97 140.449C1378.74 135.781 1381.42 126.465 1388.96 119.643Z" fill="#9DD67D"/>
<path fill-rule="evenodd" clip-rule="evenodd" d="M1385.07 112.888C1394.75 109.767 1401.03 102.377 1399.11 96.3787C1397.18 90.3791 1387.77 88.0451 1378.09 91.1646C1368.41 94.2839 1362.13 101.675 1364.05 107.675C1365.98 113.674 1375.39 116.008 1385.07 112.888Z" fill="#9DD67D"/>
<path fill-rule="evenodd" clip-rule="evenodd" d="M1421.6 109.701C1424.6 109.702 1435.54 111.428 1440.5 114.131C1445.45 116.834 1452.16 119.852 1460.22 114.045C1468.27 108.237 1466.88 97.364 1463.23 91.7859C1459.57 86.2066 1452.23 75.95 1448.83 67.5662C1445.43 59.1829 1438.96 49.8592 1429.44 52.2956C1419.92 54.7321 1417.66 62.8761 1417.01 68.5895C1416.36 74.3019 1411.37 86.0999 1408.49 90.5068C1405.62 94.9125 1404.22 109.692 1421.6 109.701Z" fill="#9DD67D"/>
</g>
<g opacity="0.6" clip-path="url(#clip1_505_2656)">
<path fill-rule="evenodd" clip-rule="evenodd" d="M36.7603 68.3739C28.8605 67.5739 22.8543 62.9574 23.3408 58.0605C23.8274 53.1635 30.6241 49.8413 38.5225 50.6408C46.4211 51.44 52.428 56.0567 51.9412 60.9536C51.4538 65.8502 44.6571 69.1721 36.7603 68.3739Z" fill="#9DD67D"/>
<path fill-rule="evenodd" clip-rule="evenodd" d="M14.5975 106.761C9.95496 100.319 2.95381 97.4261 -1.04399 100.296C-5.04165 103.166 -4.52007 110.713 0.121099 117.154C4.7627 123.594 11.7645 126.488 15.7618 123.618C19.7586 120.748 19.2372 113.201 14.5975 106.761Z" fill="#9DD67D"/>
<path fill-rule="evenodd" clip-rule="evenodd" d="M39.7991 92.1371C32.242 89.7018 27.336 83.9307 28.8402 79.2465C30.3455 74.5634 37.6921 72.741 45.2485 75.1761C52.8054 77.6115 57.7117 83.3827 56.2066 88.0663C54.702 92.75 47.3562 94.5726 39.7991 92.1371Z" fill="#9DD67D"/>
<path fill-rule="evenodd" clip-rule="evenodd" d="M36.7507 97.4041C30.8625 92.0784 23.4118 90.7133 20.1087 94.3585C16.8043 98.0032 18.8994 105.277 24.787 110.603C30.6746 115.93 38.1256 117.294 41.4293 113.648C44.7331 110.003 42.6388 102.73 36.7507 97.4041Z" fill="#9DD67D"/>
<path fill-rule="evenodd" clip-rule="evenodd" d="M20.3367 73.9508C19.1642 71.9188 16.0598 63.8467 15.9538 59.442C15.8477 55.0376 15.2688 49.3215 8.19746 46.142C1.12511 42.9614 -5.6824 48.1484 -8.02771 52.7964C-10.3744 57.4438 -14.444 66.4106 -18.7842 71.9842C-23.1243 77.5576 -26.9019 85.5735 -21.5391 91.0576C-16.1763 96.5417 -9.78826 94.8893 -5.67117 93.0989C-1.55539 91.3079 8.37206 90.0802 12.4746 90.3047C16.5758 90.5288 27.1119 85.7 20.3367 73.9508Z" fill="#9DD67D"/>
</g>
<g opacity="0.8" clip-path="url(#clip2_505_2656)">
<path fill-rule="evenodd" clip-rule="evenodd" d="M571.791 161.168C568.443 151.565 570.551 142.094 576.499 140.008C582.447 137.922 589.982 144.014 593.33 153.615C596.677 163.216 594.57 172.688 588.622 174.774C582.674 176.859 575.139 170.767 571.791 161.168Z" fill="#9DD67D"/>
<path fill-rule="evenodd" clip-rule="evenodd" d="M515.233 156.22C520.198 147.344 519.767 137.651 514.271 134.564C508.775 131.477 500.297 136.167 495.333 145.041C490.369 153.916 490.8 163.61 496.295 166.697C501.79 169.782 510.269 165.092 515.233 156.22Z" fill="#9DD67D"/>
<path fill-rule="evenodd" clip-rule="evenodd" d="M545.851 177.559C544.587 167.468 548.63 158.649 554.882 157.86C561.133 157.072 567.226 164.614 568.489 174.704C569.753 184.794 565.709 193.613 559.457 194.402C553.206 195.19 547.114 187.65 545.851 177.559Z" fill="#9DD67D"/>
<path fill-rule="evenodd" clip-rule="evenodd" d="M538.086 176.871C541.081 167.153 538.633 157.765 532.613 155.904C526.594 154.041 519.285 160.41 516.289 170.128C513.292 179.846 515.742 189.233 521.762 191.095C527.782 192.957 535.091 186.589 538.086 176.871Z" fill="#9DD67D"/>
<path fill-rule="evenodd" clip-rule="evenodd" d="M556.427 145.122C558.151 142.661 565.841 134.688 570.896 132.181C575.952 129.673 582.274 125.907 582.137 115.978C582.001 106.046 572.294 100.952 565.63 100.745C558.964 100.537 546.353 100.666 537.533 98.6451C528.714 96.6239 517.364 96.5778 513.901 105.772C510.438 114.965 515.814 121.486 520.121 125.296C524.428 129.105 531.227 139.964 533.187 144.848C535.147 149.73 546.455 159.347 556.427 145.122Z" fill="#9DD67D"/>
</g>
<defs>
<clipPath id="clip0_505_2656">
<rect width="109.222" height="154.807" fill="white" transform="translate(1368.61 189.993) rotate(-120)"/>
</clipPath>
<clipPath id="clip1_505_2656">
<rect width="85.275" height="120.865" fill="white" transform="translate(95.3096 78.4325) rotate(120)"/>
</clipPath>
<clipPath id="clip2_505_2656">
<rect width="118.395" height="110.479" fill="white" transform="translate(600.944 235.378) rotate(-175)"/>
</clipPath>
</defs>
</svg>
