<svg width="500" height="662" viewBox="0 0 500 662" fill="none" xmlns="http://www.w3.org/2000/svg">
<path d="M423.243 40.6216C464.205 76.6529 485.444 134.303 494.167 187.022C503.27 239.362 499.477 286.772 497.581 333.423C496.064 379.695 496.443 425.208 486.961 476.41C477.479 527.612 457.757 584.504 418.691 617.501C379.247 650.498 320.08 659.601 259.775 661.497C199.47 663.393 138.406 658.083 107.306 620.156C76.205 582.228 75.4464 512.062 57.6205 458.963C39.4152 405.865 4.14251 369.833 0.349751 331.906C-3.44301 293.978 24.2441 253.775 52.6899 218.881C81.5149 184.367 111.098 155.163 145.992 115.339C180.885 75.8943 220.709 25.4506 271.153 7.6246C321.597 -10.2014 382.281 4.2111 423.243 40.6216Z" fill="#CBE4CB"/>
</svg>
