<svg width="900" height="647" viewBox="0 0 900 647" fill="none" xmlns="http://www.w3.org/2000/svg">
<path d="M640.78 583.194C677.579 551.361 706.785 518.391 746.505 481.442C786.225 444.493 836.46 402.996 867.418 344.446C898.376 285.895 910.059 210.292 890.199 140.373C869.754 69.885 817.768 6.21881 750.01 0.534327C682.252 -4.58171 599.307 48.8524 528.044 68.7481C456.782 88.6438 396.617 74.4326 330.028 80.1171C263.438 85.8016 189.255 111.382 123.249 161.405C57.8279 211.997 0 287.032 0 362.068C0.58412 436.534 59.5802 511.001 132.011 549.655C205.026 588.878 291.476 591.721 358.066 606.5C424.071 621.848 470.217 648.565 515.194 646.86C560.171 645.155 604.564 615.027 640.78 583.194Z" fill="#9DD67D"/>
</svg>
