<svg width="495" height="466" viewBox="0 0 495 466" fill="none" xmlns="http://www.w3.org/2000/svg">
<path d="M100.992 152.082C138.901 135.592 168.787 125.372 203.463 94.5115C238.071 63.9693 277.47 12.7859 319.057 2.42557C360.963 -7.86599 404.67 22.9153 436.048 61.3717C467.427 99.8282 486.227 145.572 492.188 190.545C498.149 235.517 490.884 279.968 477.297 319.718C463.642 359.787 443.596 395.475 414.058 416.441C384.451 437.725 345.351 444.288 309.601 449.239C274.237 453.941 241.517 457.212 201.625 461.269C161.732 465.326 114.28 470.418 84.146 450.905C54.3309 431.461 42.0842 387.799 26.445 344.404C10.8747 300.692 -8.0883 257.246 5.07796 224.075C18.1754 191.221 63.4021 168.641 100.992 152.082Z" fill="#57BF9E"/>
</svg>
